<svg width="28" height="28" viewBox="0 0 28 28" fill="none" xmlns="http://www.w3.org/2000/svg">
<path d="M14.2578 13.458C8.94656 13.458 4.63281 17.763 4.63281 23.083V26.1455H23.8741V23.083C23.8741 17.763 19.5691 13.458 14.2578 13.458Z" fill="#56436B"/>
<path d="M14.2578 13.458C8.94656 13.458 4.63281 17.763 4.63281 23.083V26.1455H23.8741V23.083C23.8741 17.763 19.5691 13.458 14.2578 13.458Z" fill="url(#paint0_radial_432_156)"/>
<path d="M14.2578 13.458C8.94656 13.458 4.63281 17.763 4.63281 23.083V26.1455H23.8741V23.083C23.8741 17.763 19.5691 13.458 14.2578 13.458Z" fill="url(#paint1_radial_432_156)"/>
<path d="M20.3869 15.7532C20.436 15.6544 20.4119 15.5352 20.3282 15.4634C18.7061 14.0708 16.5343 13.3027 14.2607 13.3027C11.9873 13.3027 9.80273 14.079 8.17996 15.4638C8.09607 15.5354 8.07158 15.6545 8.12043 15.7534C9.23924 18.0179 11.405 19.7695 14.2607 19.7695C17.1166 19.7695 19.2613 18.0178 20.3869 15.7532Z" fill="url(#paint2_radial_432_156)"/>
<path d="M20.3869 15.7532C20.436 15.6544 20.4119 15.5352 20.3282 15.4634C18.7061 14.0708 16.5343 13.3027 14.2607 13.3027C11.9873 13.3027 9.80273 14.079 8.17996 15.4638C8.09607 15.5354 8.07158 15.6545 8.12043 15.7534C9.23924 18.0179 11.405 19.7695 14.2607 19.7695C17.1166 19.7695 19.2613 18.0178 20.3869 15.7532Z" fill="url(#paint3_radial_432_156)"/>
<path d="M20.3869 15.7532C20.436 15.6544 20.4119 15.5352 20.3282 15.4634C18.7061 14.0708 16.5343 13.3027 14.2607 13.3027C11.9873 13.3027 9.80273 14.079 8.17996 15.4638C8.09607 15.5354 8.07158 15.6545 8.12043 15.7534C9.23924 18.0179 11.405 19.7695 14.2607 19.7695C17.1166 19.7695 19.2613 18.0178 20.3869 15.7532Z" fill="url(#paint4_radial_432_156)"/>
<path d="M20.3869 15.7532C20.436 15.6544 20.4119 15.5352 20.3282 15.4634C18.7061 14.0708 16.5343 13.3027 14.2607 13.3027C11.9873 13.3027 9.80273 14.079 8.17996 15.4638C8.09607 15.5354 8.07158 15.6545 8.12043 15.7534C9.23924 18.0179 11.405 19.7695 14.2607 19.7695C17.1166 19.7695 19.2613 18.0178 20.3869 15.7532Z" fill="url(#paint5_radial_432_156)"/>
<path d="M20.3869 15.7532C20.436 15.6544 20.4119 15.5352 20.3282 15.4634C18.7061 14.0708 16.5343 13.3027 14.2607 13.3027C11.9873 13.3027 9.80273 14.079 8.17996 15.4638C8.09607 15.5354 8.07158 15.6545 8.12043 15.7534C9.23924 18.0179 11.405 19.7695 14.2607 19.7695C17.1166 19.7695 19.2613 18.0178 20.3869 15.7532Z" fill="url(#paint6_radial_432_156)"/>
<path d="M20.3869 15.7532C20.436 15.6544 20.4119 15.5352 20.3282 15.4634C18.7061 14.0708 16.5343 13.3027 14.2607 13.3027C11.9873 13.3027 9.80273 14.079 8.17996 15.4638C8.09607 15.5354 8.07158 15.6545 8.12043 15.7534C9.23924 18.0179 11.405 19.7695 14.2607 19.7695C17.1166 19.7695 19.2613 18.0178 20.3869 15.7532Z" fill="url(#paint7_radial_432_156)"/>
<path d="M18.4847 10.4229C18.7792 10.4134 19.055 10.3135 19.2793 10.1519V10.9696C19.2793 11.7541 18.8119 12.453 18.1015 12.743C18.251 12.4245 18.3539 12.0774 18.4053 11.7066L18.4847 10.4229Z" fill="url(#paint8_radial_432_156)"/>
<path d="M18.4847 10.4229C18.7792 10.4134 19.055 10.3135 19.2793 10.1519V10.9696C19.2793 11.7541 18.8119 12.453 18.1015 12.743C18.251 12.4245 18.3539 12.0774 18.4053 11.7066L18.4847 10.4229Z" fill="url(#paint9_radial_432_156)"/>
<path d="M9.94104 10.4235C9.64659 10.414 9.37083 10.3141 9.14648 10.1525V10.9702C9.14648 11.7547 9.61387 12.4536 10.3243 12.7437C10.1747 12.4251 10.0719 12.078 10.0205 11.7072L9.94104 10.4235Z" fill="url(#paint10_radial_432_156)"/>
<path d="M9.94104 10.4235C9.64659 10.414 9.37083 10.3141 9.14648 10.1525V10.9702C9.14648 11.7547 9.61387 12.4536 10.3243 12.7437C10.1747 12.4251 10.0719 12.078 10.0205 11.7072L9.94104 10.4235Z" fill="url(#paint11_radial_432_156)"/>
<path d="M13.997 16.4067C14.052 16.4444 14.1455 16.4768 14.242 16.4801C14.3384 16.4768 14.4319 16.4444 14.4869 16.4067C15.3767 15.7978 16.0444 15.1912 16.0444 14.1435V10.9642C16.0444 9.96674 15.2394 9.16174 14.242 9.16174C13.2445 9.16174 12.4395 9.96674 12.4395 10.9642V14.1435C12.4395 15.1912 13.1072 15.7978 13.997 16.4067Z" fill="url(#paint12_radial_432_156)"/>
<g filter="url(#filter0_ii_432_156)">
<path d="M9.97304 11.7549C10.1991 13.4703 11.6589 14.7475 13.3872 14.7475H15.0449C16.7731 14.7475 18.233 13.4703 18.459 11.7549C18.5627 10.0998 18.6669 8.45131 18.7438 6.79707C18.7345 6.12315 18.2033 5.56704 17.5322 5.53877H16.3019C15.4631 5.53877 14.7035 5.04393 14.3586 4.27104C14.2701 4.04954 14.0557 3.90344 13.818 3.90344H12.6996C11.0778 3.90344 9.76367 5.23244 9.76367 6.87247C9.76367 8.5074 9.86579 10.1158 9.97304 11.7549Z" fill="url(#paint13_radial_432_156)"/>
</g>
<path d="M9.97304 11.7549C10.1991 13.4703 11.6589 14.7475 13.3872 14.7475H15.0449C16.7731 14.7475 18.233 13.4703 18.459 11.7549C18.5627 10.0998 18.6669 8.45131 18.7438 6.79707C18.7345 6.12315 18.2033 5.56704 17.5322 5.53877H16.3019C15.4631 5.53877 14.7035 5.04393 14.3586 4.27104C14.2701 4.04954 14.0557 3.90344 13.818 3.90344H12.6996C11.0778 3.90344 9.76367 5.23244 9.76367 6.87247C9.76367 8.5074 9.86579 10.1158 9.97304 11.7549Z" fill="url(#paint14_radial_432_156)"/>
<path d="M9.97304 11.7549C10.1991 13.4703 11.6589 14.7475 13.3872 14.7475H15.0449C16.7731 14.7475 18.233 13.4703 18.459 11.7549C18.5627 10.0998 18.6669 8.45131 18.7438 6.79707C18.7345 6.12315 18.2033 5.56704 17.5322 5.53877H16.3019C15.4631 5.53877 14.7035 5.04393 14.3586 4.27104C14.2701 4.04954 14.0557 3.90344 13.818 3.90344H12.6996C11.0778 3.90344 9.76367 5.23244 9.76367 6.87247C9.76367 8.5074 9.86579 10.1158 9.97304 11.7549Z" fill="url(#paint15_radial_432_156)"/>
<path d="M9.97304 11.7549C10.1991 13.4703 11.6589 14.7475 13.3872 14.7475H15.0449C16.7731 14.7475 18.233 13.4703 18.459 11.7549C18.5627 10.0998 18.6669 8.45131 18.7438 6.79707C18.7345 6.12315 18.2033 5.56704 17.5322 5.53877H16.3019C15.4631 5.53877 14.7035 5.04393 14.3586 4.27104C14.2701 4.04954 14.0557 3.90344 13.818 3.90344H12.6996C11.0778 3.90344 9.76367 5.23244 9.76367 6.87247C9.76367 8.5074 9.86579 10.1158 9.97304 11.7549Z" fill="url(#paint16_radial_432_156)"/>
<path d="M9.97304 11.7549C10.1991 13.4703 11.6589 14.7475 13.3872 14.7475H15.0449C16.7731 14.7475 18.233 13.4703 18.459 11.7549C18.5627 10.0998 18.6669 8.45131 18.7438 6.79707C18.7345 6.12315 18.2033 5.56704 17.5322 5.53877H16.3019C15.4631 5.53877 14.7035 5.04393 14.3586 4.27104C14.2701 4.04954 14.0557 3.90344 13.818 3.90344H12.6996C11.0778 3.90344 9.76367 5.23244 9.76367 6.87247C9.76367 8.5074 9.86579 10.1158 9.97304 11.7549Z" fill="url(#paint17_radial_432_156)"/>
<path d="M9.97304 11.7549C10.1991 13.4703 11.6589 14.7475 13.3872 14.7475H15.0449C16.7731 14.7475 18.233 13.4703 18.459 11.7549C18.5627 10.0998 18.6669 8.45131 18.7438 6.79707C18.7345 6.12315 18.2033 5.56704 17.5322 5.53877H16.3019C15.4631 5.53877 14.7035 5.04393 14.3586 4.27104C14.2701 4.04954 14.0557 3.90344 13.818 3.90344H12.6996C11.0778 3.90344 9.76367 5.23244 9.76367 6.87247C9.76367 8.5074 9.86579 10.1158 9.97304 11.7549Z" fill="url(#paint18_radial_432_156)"/>
<g filter="url(#filter1_f_432_156)">
<path d="M13.7856 8.86935L13.2279 10.4841C13.1326 10.8163 13.3612 11.1484 13.6852 11.1484H14.3759C14.6998 11.1484 14.9285 10.8111 14.8332 10.4841L14.3664 8.86935C14.2663 8.51165 13.8904 8.51165 13.7856 8.86935Z" fill="#EE9020"/>
</g>
<g filter="url(#filter2_f_432_156)">
<path d="M13.8763 8.69735L13.4095 10.3121C13.3142 10.6443 13.5429 10.9764 13.8668 10.9764H14.5575C14.8814 10.9764 15.1101 10.6391 15.0148 10.3121L14.548 8.69735C14.448 8.33965 13.9811 8.33965 13.8763 8.69735Z" fill="url(#paint19_linear_432_156)"/>
<path d="M13.8763 8.69735L13.4095 10.3121C13.3142 10.6443 13.5429 10.9764 13.8668 10.9764H14.5575C14.8814 10.9764 15.1101 10.6391 15.0148 10.3121L14.548 8.69735C14.448 8.33965 13.9811 8.33965 13.8763 8.69735Z" fill="url(#paint20_linear_432_156)"/>
<path d="M13.8763 8.69735L13.4095 10.3121C13.3142 10.6443 13.5429 10.9764 13.8668 10.9764H14.5575C14.8814 10.9764 15.1101 10.6391 15.0148 10.3121L14.548 8.69735C14.448 8.33965 13.9811 8.33965 13.8763 8.69735Z" fill="url(#paint21_linear_432_156)"/>
<path d="M13.8763 8.69735L13.4095 10.3121C13.3142 10.6443 13.5429 10.9764 13.8668 10.9764H14.5575C14.8814 10.9764 15.1101 10.6391 15.0148 10.3121L14.548 8.69735C14.448 8.33965 13.9811 8.33965 13.8763 8.69735Z" fill="url(#paint22_linear_432_156)"/>
</g>
<g filter="url(#filter3_f_432_156)">
<path d="M13.03 11.5155L13.03 11.5155C13.3712 11.6933 13.7784 11.7956 14.2127 11.7956C14.6513 11.7956 15.0541 11.6934 15.3953 11.5155L15.396 11.5151L15.396 11.5151C15.4885 11.4681 15.5861 11.4955 15.6445 11.5562C15.7039 11.6178 15.726 11.7176 15.6664 11.8071M13.03 11.5155L15.6039 11.7656M13.03 11.5155L13.0293 11.5151C12.9357 11.4676 12.8381 11.4975 12.7804 11.5582C12.7224 11.6193 12.6985 11.7192 12.7593 11.8076M13.03 11.5155L12.8214 11.7656M15.6664 11.8071C15.6663 11.8071 15.6663 11.8072 15.6663 11.8072L15.6039 11.7656M15.6664 11.8071C15.6664 11.807 15.6664 11.807 15.6665 11.8069L15.6039 11.7656M15.6664 11.8071C15.3586 12.2734 14.8227 12.584 14.2127 12.584C13.6029 12.584 13.0671 12.2736 12.7593 11.8076M15.6039 11.7656C15.3096 12.2116 14.7968 12.509 14.2127 12.509C13.6285 12.509 13.1157 12.2116 12.8214 11.7656M12.7593 11.8076C12.7594 11.8079 12.7596 11.8081 12.7598 11.8084L12.8214 11.7656M12.7593 11.8076C12.7591 11.8074 12.759 11.8072 12.7588 11.8069L12.8214 11.7656" stroke="url(#paint23_radial_432_156)" stroke-width="0.15"/>
</g>
<path d="M14.2127 11.8706C13.7667 11.8706 13.3476 11.7656 12.9953 11.582C12.8749 11.5208 12.7456 11.6563 12.8214 11.7656C13.1157 12.2116 13.6285 12.509 14.2127 12.509C14.7968 12.509 15.3096 12.2116 15.6039 11.7656C15.6797 11.652 15.5504 11.5208 15.43 11.582C15.0777 11.7656 14.663 11.8706 14.2127 11.8706Z" fill="url(#paint24_radial_432_156)"/>
<g filter="url(#filter4_ii_432_156)">
<path d="M18.4787 3.4887C18.9307 3.64422 19.3361 3.95998 19.5924 4.4124C20.0025 5.13345 19.9419 5.99588 19.4992 6.63211C19.3454 6.85832 19.2616 7.12695 19.2616 7.40029V8.44416C19.0972 8.32967 18.8804 8.24479 18.6753 8.20852L18.7443 6.79705C18.735 6.12313 18.2037 5.56702 17.5326 5.53875H16.3023C15.4635 5.53875 14.7039 5.04391 14.3591 4.27102C14.2705 4.04952 14.0561 3.90342 13.8185 3.90342H12.7C11.0783 3.90342 9.76412 5.23242 9.76412 6.87246L9.79103 8.22325C9.56788 8.25604 9.33477 8.33064 9.15829 8.45493V7.40029C9.15829 7.12695 9.07441 6.85832 8.92062 6.63211C8.50121 6.01474 8.42664 5.18529 8.7948 4.48309C9.05111 3.99768 9.46586 3.65836 9.93654 3.49341C10.4398 3.31433 10.8686 2.97501 11.1528 2.51787C11.5163 1.9382 12.1548 1.70215 12.8864 1.70215C13.1707 1.70215 13.441 1.76341 13.6926 1.86709C14.0282 2.01319 14.4057 2.01319 14.7412 1.86709C14.9882 1.76341 15.2585 1.70215 15.5427 1.70215C16.2837 1.70215 16.9315 1.95234 17.2903 2.54615C17.5606 2.99386 17.9847 3.31904 18.4787 3.4887Z" fill="url(#paint25_linear_432_156)"/>
<path d="M18.4787 3.4887C18.9307 3.64422 19.3361 3.95998 19.5924 4.4124C20.0025 5.13345 19.9419 5.99588 19.4992 6.63211C19.3454 6.85832 19.2616 7.12695 19.2616 7.40029V8.44416C19.0972 8.32967 18.8804 8.24479 18.6753 8.20852L18.7443 6.79705C18.735 6.12313 18.2037 5.56702 17.5326 5.53875H16.3023C15.4635 5.53875 14.7039 5.04391 14.3591 4.27102C14.2705 4.04952 14.0561 3.90342 13.8185 3.90342H12.7C11.0783 3.90342 9.76412 5.23242 9.76412 6.87246L9.79103 8.22325C9.56788 8.25604 9.33477 8.33064 9.15829 8.45493V7.40029C9.15829 7.12695 9.07441 6.85832 8.92062 6.63211C8.50121 6.01474 8.42664 5.18529 8.7948 4.48309C9.05111 3.99768 9.46586 3.65836 9.93654 3.49341C10.4398 3.31433 10.8686 2.97501 11.1528 2.51787C11.5163 1.9382 12.1548 1.70215 12.8864 1.70215C13.1707 1.70215 13.441 1.76341 13.6926 1.86709C14.0282 2.01319 14.4057 2.01319 14.7412 1.86709C14.9882 1.76341 15.2585 1.70215 15.5427 1.70215C16.2837 1.70215 16.9315 1.95234 17.2903 2.54615C17.5606 2.99386 17.9847 3.31904 18.4787 3.4887Z" fill="url(#paint26_radial_432_156)"/>
<path d="M18.4787 3.4887C18.9307 3.64422 19.3361 3.95998 19.5924 4.4124C20.0025 5.13345 19.9419 5.99588 19.4992 6.63211C19.3454 6.85832 19.2616 7.12695 19.2616 7.40029V8.44416C19.0972 8.32967 18.8804 8.24479 18.6753 8.20852L18.7443 6.79705C18.735 6.12313 18.2037 5.56702 17.5326 5.53875H16.3023C15.4635 5.53875 14.7039 5.04391 14.3591 4.27102C14.2705 4.04952 14.0561 3.90342 13.8185 3.90342H12.7C11.0783 3.90342 9.76412 5.23242 9.76412 6.87246L9.79103 8.22325C9.56788 8.25604 9.33477 8.33064 9.15829 8.45493V7.40029C9.15829 7.12695 9.07441 6.85832 8.92062 6.63211C8.50121 6.01474 8.42664 5.18529 8.7948 4.48309C9.05111 3.99768 9.46586 3.65836 9.93654 3.49341C10.4398 3.31433 10.8686 2.97501 11.1528 2.51787C11.5163 1.9382 12.1548 1.70215 12.8864 1.70215C13.1707 1.70215 13.441 1.76341 13.6926 1.86709C14.0282 2.01319 14.4057 2.01319 14.7412 1.86709C14.9882 1.76341 15.2585 1.70215 15.5427 1.70215C16.2837 1.70215 16.9315 1.95234 17.2903 2.54615C17.5606 2.99386 17.9847 3.31904 18.4787 3.4887Z" fill="url(#paint27_radial_432_156)"/>
<path d="M18.4787 3.4887C18.9307 3.64422 19.3361 3.95998 19.5924 4.4124C20.0025 5.13345 19.9419 5.99588 19.4992 6.63211C19.3454 6.85832 19.2616 7.12695 19.2616 7.40029V8.44416C19.0972 8.32967 18.8804 8.24479 18.6753 8.20852L18.7443 6.79705C18.735 6.12313 18.2037 5.56702 17.5326 5.53875H16.3023C15.4635 5.53875 14.7039 5.04391 14.3591 4.27102C14.2705 4.04952 14.0561 3.90342 13.8185 3.90342H12.7C11.0783 3.90342 9.76412 5.23242 9.76412 6.87246L9.79103 8.22325C9.56788 8.25604 9.33477 8.33064 9.15829 8.45493V7.40029C9.15829 7.12695 9.07441 6.85832 8.92062 6.63211C8.50121 6.01474 8.42664 5.18529 8.7948 4.48309C9.05111 3.99768 9.46586 3.65836 9.93654 3.49341C10.4398 3.31433 10.8686 2.97501 11.1528 2.51787C11.5163 1.9382 12.1548 1.70215 12.8864 1.70215C13.1707 1.70215 13.441 1.76341 13.6926 1.86709C14.0282 2.01319 14.4057 2.01319 14.7412 1.86709C14.9882 1.76341 15.2585 1.70215 15.5427 1.70215C16.2837 1.70215 16.9315 1.95234 17.2903 2.54615C17.5606 2.99386 17.9847 3.31904 18.4787 3.4887Z" fill="url(#paint28_radial_432_156)"/>
<path d="M18.4787 3.4887C18.9307 3.64422 19.3361 3.95998 19.5924 4.4124C20.0025 5.13345 19.9419 5.99588 19.4992 6.63211C19.3454 6.85832 19.2616 7.12695 19.2616 7.40029V8.44416C19.0972 8.32967 18.8804 8.24479 18.6753 8.20852L18.7443 6.79705C18.735 6.12313 18.2037 5.56702 17.5326 5.53875H16.3023C15.4635 5.53875 14.7039 5.04391 14.3591 4.27102C14.2705 4.04952 14.0561 3.90342 13.8185 3.90342H12.7C11.0783 3.90342 9.76412 5.23242 9.76412 6.87246L9.79103 8.22325C9.56788 8.25604 9.33477 8.33064 9.15829 8.45493V7.40029C9.15829 7.12695 9.07441 6.85832 8.92062 6.63211C8.50121 6.01474 8.42664 5.18529 8.7948 4.48309C9.05111 3.99768 9.46586 3.65836 9.93654 3.49341C10.4398 3.31433 10.8686 2.97501 11.1528 2.51787C11.5163 1.9382 12.1548 1.70215 12.8864 1.70215C13.1707 1.70215 13.441 1.76341 13.6926 1.86709C14.0282 2.01319 14.4057 2.01319 14.7412 1.86709C14.9882 1.76341 15.2585 1.70215 15.5427 1.70215C16.2837 1.70215 16.9315 1.95234 17.2903 2.54615C17.5606 2.99386 17.9847 3.31904 18.4787 3.4887Z" fill="url(#paint29_radial_432_156)"/>
</g>
<g filter="url(#filter5_i_432_156)">
<path d="M17.4923 6.70709C17.3384 6.57306 17.1595 6.43104 16.8884 6.34571C16.6212 6.26159 16.2865 6.23899 15.8234 6.29564C15.6899 6.31198 15.5949 6.43347 15.6112 6.56701C15.6275 6.70055 15.749 6.79556 15.8826 6.77922C16.3052 6.72752 16.5641 6.75439 16.7421 6.81042C16.9163 6.86525 17.0341 6.95408 17.1723 7.07446C17.2738 7.16282 17.4277 7.15222 17.516 7.05077C17.6044 6.94932 17.5938 6.79545 17.4923 6.70709Z" fill="#C05029"/>
</g>
<g filter="url(#filter6_i_432_156)">
<path d="M11.2153 6.61142C11.2945 6.56404 11.4084 6.50343 11.5522 6.44688C11.8399 6.33379 12.2509 6.23558 12.7428 6.29575C12.8763 6.31209 12.9713 6.43358 12.955 6.56712C12.9386 6.70066 12.8171 6.79567 12.6836 6.77933C12.2897 6.73115 11.9611 6.80961 11.7305 6.90028C11.6152 6.94561 11.5254 6.99365 11.4655 7.02946C11.4357 7.04732 11.4135 7.06203 11.3996 7.07165C11.3926 7.07646 11.3877 7.07999 11.385 7.08199L11.3826 7.0838C11.2764 7.16564 11.1239 7.14635 11.0416 7.04044C10.959 6.93424 10.9781 6.7812 11.0843 6.6986L11.2153 6.61142Z" fill="#C05029"/>
</g>
<g filter="url(#filter7_f_432_156)">
<path d="M14.4164 4.3912C14.3959 4.35193 14.3765 4.31185 14.3583 4.27099C14.2697 4.04949 14.0554 3.9034 13.8177 3.9034H12.6993C11.0775 3.9034 9.76335 5.23239 9.76335 6.87243V7.1142C9.46461 6.88686 9.08887 6.40729 9.08887 5.63121C9.08887 4.68944 9.77574 4.21341 10.2139 3.90976C10.3376 3.82403 10.4414 3.75205 10.5044 3.6872C10.5312 3.65965 10.5603 3.62875 10.592 3.59514C10.8991 3.26941 11.4463 2.68902 12.4019 2.43538C12.8298 2.3218 13.2628 2.28683 13.6282 2.2889C14.101 2.29159 14.4349 2.7002 14.4349 3.17304V4.37938L14.4164 4.3912Z" fill="url(#paint30_radial_432_156)"/>
<path d="M14.4164 4.3912C14.3959 4.35193 14.3765 4.31185 14.3583 4.27099C14.2697 4.04949 14.0554 3.9034 13.8177 3.9034H12.6993C11.0775 3.9034 9.76335 5.23239 9.76335 6.87243V7.1142C9.46461 6.88686 9.08887 6.40729 9.08887 5.63121C9.08887 4.68944 9.77574 4.21341 10.2139 3.90976C10.3376 3.82403 10.4414 3.75205 10.5044 3.6872C10.5312 3.65965 10.5603 3.62875 10.592 3.59514C10.8991 3.26941 11.4463 2.68902 12.4019 2.43538C12.8298 2.3218 13.2628 2.28683 13.6282 2.2889C14.101 2.29159 14.4349 2.7002 14.4349 3.17304V4.37938L14.4164 4.3912Z" fill="url(#paint31_radial_432_156)"/>
</g>
<g filter="url(#filter8_f_432_156)">
<path d="M18.7932 7.35427L18.7675 6.79968C18.7582 6.12886 18.2039 5.57532 17.5328 5.54718H16.3025C15.5215 5.54718 14.8092 5.12019 14.4364 4.44038C14.4364 4.44038 14.4181 4.3981 14.3919 4.32077C14.0705 3.37059 15.0132 2.61344 15.9942 2.82265C16.7961 2.99364 17.6732 3.27218 18.3355 3.7042C19.8684 4.70398 19.6 6.50578 18.7932 7.35427Z" fill="url(#paint32_radial_432_156)"/>
<path d="M18.7932 7.35427L18.7675 6.79968C18.7582 6.12886 18.2039 5.57532 17.5328 5.54718H16.3025C15.5215 5.54718 14.8092 5.12019 14.4364 4.44038C14.4364 4.44038 14.4181 4.3981 14.3919 4.32077C14.0705 3.37059 15.0132 2.61344 15.9942 2.82265C16.7961 2.99364 17.6732 3.27218 18.3355 3.7042C19.8684 4.70398 19.6 6.50578 18.7932 7.35427Z" fill="url(#paint33_radial_432_156)"/>
<path d="M18.7932 7.35427L18.7675 6.79968C18.7582 6.12886 18.2039 5.57532 17.5328 5.54718H16.3025C15.5215 5.54718 14.8092 5.12019 14.4364 4.44038C14.4364 4.44038 14.4181 4.3981 14.3919 4.32077C14.0705 3.37059 15.0132 2.61344 15.9942 2.82265C16.7961 2.99364 17.6732 3.27218 18.3355 3.7042C19.8684 4.70398 19.6 6.50578 18.7932 7.35427Z" fill="url(#paint34_radial_432_156)"/>
<path d="M18.7932 7.35427L18.7675 6.79968C18.7582 6.12886 18.2039 5.57532 17.5328 5.54718H16.3025C15.5215 5.54718 14.8092 5.12019 14.4364 4.44038C14.4364 4.44038 14.4181 4.3981 14.3919 4.32077C14.0705 3.37059 15.0132 2.61344 15.9942 2.82265C16.7961 2.99364 17.6732 3.27218 18.3355 3.7042C19.8684 4.70398 19.6 6.50578 18.7932 7.35427Z" fill="url(#paint35_radial_432_156)"/>
<path d="M18.7932 7.35427L18.7675 6.79968C18.7582 6.12886 18.2039 5.57532 17.5328 5.54718H16.3025C15.5215 5.54718 14.8092 5.12019 14.4364 4.44038C14.4364 4.44038 14.4181 4.3981 14.3919 4.32077C14.0705 3.37059 15.0132 2.61344 15.9942 2.82265C16.7961 2.99364 17.6732 3.27218 18.3355 3.7042C19.8684 4.70398 19.6 6.50578 18.7932 7.35427Z" fill="url(#paint36_radial_432_156)"/>
</g>
<path d="M16.3127 7.86255C16.8864 7.86255 17.371 8.25806 17.5028 8.79254C17.542 8.94576 17.4244 9.09185 17.2676 9.09185H15.3079C15.1832 9.09185 15.0834 8.97783 15.1083 8.85312C15.2188 8.29013 15.7141 7.86255 16.3127 7.86255Z" fill="white"/>
<path d="M16.1312 8.10132C16.5659 8.10132 16.9151 8.45407 16.9151 8.88522C16.9151 8.95649 16.9044 9.02775 16.8866 9.09189H15.3723C15.3544 9.02419 15.3438 8.95649 15.3438 8.88522C15.3438 8.45407 15.6965 8.10132 16.1312 8.10132Z" fill="url(#paint37_radial_432_156)"/>
<path d="M15.6826 8.88495C15.6826 8.63569 15.882 8.43628 16.1313 8.43628C16.3805 8.43628 16.58 8.63569 16.58 8.88495C16.58 8.95972 16.5621 9.03094 16.5301 9.09148H15.736C15.7004 9.03094 15.6826 8.95972 15.6826 8.88495Z" fill="black"/>
<g filter="url(#filter9_f_432_156)">
<path d="M16.0733 8.26734C16.1291 8.34195 16.0125 8.43291 15.8799 8.53203C15.7473 8.63116 15.649 8.70091 15.5932 8.6263C15.5374 8.55169 15.5997 8.41085 15.7322 8.31173C15.8648 8.2126 16.0175 8.19273 16.0733 8.26734Z" fill="#C7A7A3"/>
<path d="M16.0733 8.26734C16.1291 8.34195 16.0125 8.43291 15.8799 8.53203C15.7473 8.63116 15.649 8.70091 15.5932 8.6263C15.5374 8.55169 15.5997 8.41085 15.7322 8.31173C15.8648 8.2126 16.0175 8.19273 16.0733 8.26734Z" fill="url(#paint38_radial_432_156)"/>
</g>
<g filter="url(#filter10_f_432_156)">
<path d="M16.829 8.78114C16.8001 8.57893 16.6818 8.42653 16.6262 8.37561L16.3984 8.62559L16.5012 8.82558L16.829 8.78114Z" fill="url(#paint39_linear_432_156)"/>
</g>
<path d="M12.1118 7.8623C11.5381 7.8623 11.0535 8.25784 10.9217 8.79235C10.8825 8.94557 11.0001 9.09167 11.1568 9.09167H13.1167C13.2414 9.09167 13.3412 8.97764 13.3163 8.85292C13.2058 8.28991 12.7069 7.8623 12.1118 7.8623Z" fill="white"/>
<path d="M12.2927 8.10132C11.858 8.10132 11.5088 8.45409 11.5088 8.88526C11.5088 8.95653 11.5195 9.0278 11.5373 9.09194H13.0517C13.0696 9.02423 13.0802 8.95653 13.0802 8.88526C13.0767 8.45409 12.7275 8.10132 12.2927 8.10132Z" fill="url(#paint40_radial_432_156)"/>
<path d="M12.7411 8.88497C12.7411 8.6357 12.5417 8.43628 12.2924 8.43628C12.0432 8.43628 11.8438 8.6357 11.8438 8.88497C11.8438 8.95975 11.8616 9.03097 11.8936 9.09151H12.6877C12.7198 9.03097 12.7411 8.95975 12.7411 8.88497Z" fill="black"/>
<g filter="url(#filter11_f_432_156)">
<path d="M13.009 8.79204C13.009 8.53927 12.8034 8.37075 12.7479 8.31982L12.4951 8.56426L12.6507 8.88093L13.009 8.79204Z" fill="url(#paint41_linear_432_156)"/>
</g>
<g filter="url(#filter12_f_432_156)">
<ellipse cx="12.0559" cy="8.4362" rx="0.34183" ry="0.172998" transform="rotate(-27.914 12.0559 8.4362)" fill="#C7A7A3" fill-opacity="0.9"/>
<ellipse cx="12.0559" cy="8.4362" rx="0.34183" ry="0.172998" transform="rotate(-27.914 12.0559 8.4362)" fill="url(#paint42_radial_432_156)"/>
</g>
<path d="M18.5371 10.5037C18.5949 9.56869 18.6507 8.63476 18.6993 7.69971C19.3632 7.81587 19.8678 8.39517 19.8678 9.09232C19.8678 9.84523 19.2792 10.4607 18.5371 10.5037Z" fill="url(#paint43_linear_432_156)"/>
<path d="M18.5371 10.5037C18.5949 9.56869 18.6507 8.63476 18.6993 7.69971C19.3632 7.81587 19.8678 8.39517 19.8678 9.09232C19.8678 9.84523 19.2792 10.4607 18.5371 10.5037Z" fill="url(#paint44_radial_432_156)"/>
<path d="M18.5371 10.5037C18.5949 9.56869 18.6507 8.63476 18.6993 7.69971C19.3632 7.81587 19.8678 8.39517 19.8678 9.09232C19.8678 9.84523 19.2792 10.4607 18.5371 10.5037Z" fill="url(#paint45_radial_432_156)"/>
<path d="M9.77226 7.69263C9.08574 7.78943 8.55762 8.37931 8.55762 9.09253C8.55762 9.84735 9.14914 10.464 9.89392 10.5043C9.8372 9.56538 9.79043 8.63182 9.77226 7.69263Z" fill="url(#paint46_linear_432_156)"/>
<path d="M9.77226 7.69263C9.08574 7.78943 8.55762 8.37931 8.55762 9.09253C8.55762 9.84735 9.14914 10.464 9.89392 10.5043C9.8372 9.56538 9.79043 8.63182 9.77226 7.69263Z" fill="url(#paint47_radial_432_156)"/>
<g filter="url(#filter13_f_432_156)">
<path d="M9.78566 8.27295C9.41089 8.35697 9.13086 8.69169 9.13086 9.09182C9.13086 9.51762 9.44799 9.86936 9.85894 9.92372C9.82849 9.37314 9.80281 8.82363 9.78566 8.27295Z" fill="#DD8224"/>
</g>
<g filter="url(#filter14_f_432_156)">
<path d="M18.5723 9.93113C18.6061 9.37376 18.6389 8.81664 18.6694 8.25928C19.0834 8.31092 19.4037 8.66404 19.4037 9.09197C19.4037 9.55284 19.0322 9.92694 18.5723 9.93113Z" fill="#FFC837"/>
</g>
<g filter="url(#filter15_f_432_156)">
<path d="M11.248 6.85714C11.4738 6.69519 12.0364 6.41031 12.7019 6.5222" stroke="#C96953" stroke-width="0.25" stroke-linecap="round"/>
</g>
<g filter="url(#filter16_f_432_156)">
<path d="M17.3418 6.8171C17.116 6.65515 16.5534 6.37027 15.8879 6.48216" stroke="#C96953" stroke-width="0.25" stroke-linecap="round"/>
</g>
<path d="M21.8953 10.1092V2.35425H21.1953V10.1092H21.8953Z" fill="url(#paint48_linear_432_156)"/>
<path d="M21.8953 10.1092V2.35425H21.1953V10.1092H21.8953Z" fill="url(#paint49_radial_432_156)"/>
<path d="M8.7998 4.49121L9.89697 2.74805L18.4282 2.65234L19.6177 4.45703C15.5366 5.86523 10.6284 5.13379 8.7998 4.49121Z" fill="url(#paint50_radial_432_156)"/>
<path d="M21.204 3.0543H7.23027C6.84527 3.0543 6.53027 2.7393 6.53027 2.3543C6.53027 1.9693 6.84527 1.6543 7.23027 1.6543H21.1953C21.5803 1.6543 21.8953 1.9693 21.8953 2.3543C21.904 2.7393 21.589 3.0543 21.204 3.0543Z" fill="url(#paint51_linear_432_156)"/>
<path d="M21.204 3.0543H7.23027C6.84527 3.0543 6.53027 2.7393 6.53027 2.3543C6.53027 1.9693 6.84527 1.6543 7.23027 1.6543H21.1953C21.5803 1.6543 21.8953 1.9693 21.8953 2.3543C21.904 2.7393 21.589 3.0543 21.204 3.0543Z" fill="url(#paint52_radial_432_156)"/>
<path d="M21.204 3.0543H7.23027C6.84527 3.0543 6.53027 2.7393 6.53027 2.3543C6.53027 1.9693 6.84527 1.6543 7.23027 1.6543H21.1953C21.5803 1.6543 21.8953 1.9693 21.8953 2.3543C21.904 2.7393 21.589 3.0543 21.204 3.0543Z" fill="url(#paint53_radial_432_156)"/>
<path d="M21.195 10.0884C20.9671 10.2127 20.8125 10.4544 20.8125 10.7322C20.8125 11.137 21.1406 11.4652 21.5454 11.4652C21.9502 11.4652 22.2783 11.137 22.2783 10.7322C22.2783 10.4544 22.1237 10.2127 21.8959 10.0884H21.195Z" fill="url(#paint54_radial_432_156)"/>
<path d="M21.195 10.0884C20.9671 10.2127 20.8125 10.4544 20.8125 10.7322C20.8125 11.137 21.1406 11.4652 21.5454 11.4652C21.9502 11.4652 22.2783 11.137 22.2783 10.7322C22.2783 10.4544 22.1237 10.2127 21.8959 10.0884H21.195Z" fill="url(#paint55_radial_432_156)"/>
<g filter="url(#filter17_f_432_156)">
<path d="M21.6357 3.14478V9.94138" stroke="url(#paint56_linear_432_156)" stroke-width="0.15"/>
</g>
<path d="M20.798 11.8045L20.3462 13.7632C20.2888 14.012 20.4798 14.2488 20.7351 14.2454H22.3653C22.6185 14.2421 22.8028 14.004 22.7425 13.758L22.2679 11.7987C22.2199 11.603 22.0445 11.4653 21.843 11.4653H21.2243C21.0206 11.4653 20.8438 11.606 20.798 11.8045Z" fill="url(#paint57_linear_432_156)"/>
<path d="M20.798 11.8045L20.3462 13.7632C20.2888 14.012 20.4798 14.2488 20.7351 14.2454H22.3653C22.6185 14.2421 22.8028 14.004 22.7425 13.758L22.2679 11.7987C22.2199 11.603 22.0445 11.4653 21.843 11.4653H21.2243C21.0206 11.4653 20.8438 11.606 20.798 11.8045Z" fill="url(#paint58_radial_432_156)"/>
<path d="M20.798 11.8045L20.3462 13.7632C20.2888 14.012 20.4798 14.2488 20.7351 14.2454H22.3653C22.6185 14.2421 22.8028 14.004 22.7425 13.758L22.2679 11.7987C22.2199 11.603 22.0445 11.4653 21.843 11.4653H21.2243C21.0206 11.4653 20.8438 11.606 20.798 11.8045Z" fill="url(#paint59_radial_432_156)"/>
<path d="M20.798 11.8045L20.3462 13.7632C20.2888 14.012 20.4798 14.2488 20.7351 14.2454H22.3653C22.6185 14.2421 22.8028 14.004 22.7425 13.758L22.2679 11.7987C22.2199 11.603 22.0445 11.4653 21.843 11.4653H21.2243C21.0206 11.4653 20.8438 11.606 20.798 11.8045Z" fill="url(#paint60_radial_432_156)"/>
<path d="M7.92757 26.1455V15.8325C5.90893 17.5962 4.63281 20.1895 4.63281 23.083V26.1455H7.92757Z" fill="url(#paint61_radial_432_156)"/>
<path d="M7.92757 26.1455V15.8325C5.90893 17.5962 4.63281 20.1895 4.63281 23.083V26.1455H7.92757Z" fill="url(#paint62_radial_432_156)"/>
<path d="M7.92757 26.1455V15.8325C5.90893 17.5962 4.63281 20.1895 4.63281 23.083V26.1455H7.92757Z" fill="url(#paint63_linear_432_156)"/>
<path d="M20.5793 26.1455V15.8325C22.5979 17.5962 23.874 20.1895 23.874 23.083V26.1455H20.5793Z" fill="url(#paint64_radial_432_156)"/>
<path d="M20.5793 26.1455V15.8325C22.5979 17.5962 23.874 20.1895 23.874 23.083V26.1455H20.5793Z" fill="url(#paint65_radial_432_156)"/>
<g filter="url(#filter18_f_432_156)">
<path d="M10.4629 20.6998C10.4629 20.5353 10.5983 20.4019 10.7654 20.4019C10.9324 20.4019 11.0679 20.5353 11.0679 20.6998V26.0312H10.4629V20.6998Z" fill="url(#paint66_linear_432_156)"/>
<path d="M13.9509 20.6998C13.9509 20.5353 14.0864 20.4019 14.2534 20.4019C14.4205 20.4019 14.5559 20.5353 14.5559 20.6998V26.0312H13.9509V20.6998Z" fill="url(#paint67_linear_432_156)"/>
<path d="M17.439 20.6998C17.439 20.5353 17.5744 20.4019 17.7415 20.4019C17.9085 20.4019 18.0439 20.5353 18.0439 20.6998V26.0312H17.439V20.6998Z" fill="url(#paint68_linear_432_156)"/>
</g>
<defs>
<filter id="filter0_ii_432_156" x="9.76367" y="3.90344" width="9.48047" height="11.044" filterUnits="userSpaceOnUse" color-interpolation-filters="sRGB">
<feFlood flood-opacity="0" result="BackgroundImageFix"/>
<feBlend mode="normal" in="SourceGraphic" in2="BackgroundImageFix" result="shape"/>
<feColorMatrix in="SourceAlpha" type="matrix" values="0 0 0 0 0 0 0 0 0 0 0 0 0 0 0 0 0 0 127 0" result="hardAlpha"/>
<feOffset dx="0.5"/>
<feGaussianBlur stdDeviation="0.5"/>
<feComposite in2="hardAlpha" operator="arithmetic" k2="-1" k3="1"/>
<feColorMatrix type="matrix" values="0 0 0 0 0.823529 0 0 0 0 0.623529 0 0 0 0 0.313726 0 0 0 1 0"/>
<feBlend mode="normal" in2="shape" result="effect1_innerShadow_432_156"/>
<feColorMatrix in="SourceAlpha" type="matrix" values="0 0 0 0 0 0 0 0 0 0 0 0 0 0 0 0 0 0 127 0" result="hardAlpha"/>
<feOffset dy="0.2"/>
<feGaussianBlur stdDeviation="0.375"/>
<feComposite in2="hardAlpha" operator="arithmetic" k2="-1" k3="1"/>
<feColorMatrix type="matrix" values="0 0 0 0 0.980392 0 0 0 0 0.54902 0 0 0 0 0.0941176 0 0 0 1 0"/>
<feBlend mode="normal" in2="effect1_innerShadow_432_156" result="effect2_innerShadow_432_156"/>
</filter>
<filter id="filter1_f_432_156" x="12.2061" y="7.60107" width="3.64941" height="4.54736" filterUnits="userSpaceOnUse" color-interpolation-filters="sRGB">
<feFlood flood-opacity="0" result="BackgroundImageFix"/>
<feBlend mode="normal" in="SourceGraphic" in2="BackgroundImageFix" result="shape"/>
<feGaussianBlur stdDeviation="0.5" result="effect1_foregroundBlur_432_156"/>
</filter>
<filter id="filter2_f_432_156" x="13.2877" y="8.32908" width="1.84941" height="2.74736" filterUnits="userSpaceOnUse" color-interpolation-filters="sRGB">
<feFlood flood-opacity="0" result="BackgroundImageFix"/>
<feBlend mode="normal" in="SourceGraphic" in2="BackgroundImageFix" result="shape"/>
<feGaussianBlur stdDeviation="0.05" result="effect1_foregroundBlur_432_156"/>
</filter>
<filter id="filter3_f_432_156" x="12.5484" y="11.3163" width="3.32793" height="1.44268" filterUnits="userSpaceOnUse" color-interpolation-filters="sRGB">
<feFlood flood-opacity="0" result="BackgroundImageFix"/>
<feBlend mode="normal" in="SourceGraphic" in2="BackgroundImageFix" result="shape"/>
<feGaussianBlur stdDeviation="0.05" result="effect1_foregroundBlur_432_156"/>
</filter>
<filter id="filter4_ii_432_156" x="8.55762" y="1.20215" width="11.3105" height="7.25281" filterUnits="userSpaceOnUse" color-interpolation-filters="sRGB">
<feFlood flood-opacity="0" result="BackgroundImageFix"/>
<feBlend mode="normal" in="SourceGraphic" in2="BackgroundImageFix" result="shape"/>
<feColorMatrix in="SourceAlpha" type="matrix" values="0 0 0 0 0 0 0 0 0 0 0 0 0 0 0 0 0 0 127 0" result="hardAlpha"/>
<feOffset dy="-0.5"/>
<feGaussianBlur stdDeviation="0.625"/>
<feComposite in2="hardAlpha" operator="arithmetic" k2="-1" k3="1"/>
<feColorMatrix type="matrix" values="0 0 0 0 0.945098 0 0 0 0 0.509804 0 0 0 0 0.0627451 0 0 0 1 0"/>
<feBlend mode="normal" in2="shape" result="effect1_innerShadow_432_156"/>
<feColorMatrix in="SourceAlpha" type="matrix" values="0 0 0 0 0 0 0 0 0 0 0 0 0 0 0 0 0 0 127 0" result="hardAlpha"/>
<feOffset dy="-0.2"/>
<feGaussianBlur stdDeviation="0.2"/>
<feComposite in2="hardAlpha" operator="arithmetic" k2="-1" k3="1"/>
<feColorMatrix type="matrix" values="0 0 0 0 0.862745 0 0 0 0 0.486275 0 0 0 0 0.0470588 0 0 0 1 0"/>
<feBlend mode="normal" in2="effect1_innerShadow_432_156" result="effect2_innerShadow_432_156"/>
</filter>
<filter id="filter5_i_432_156" x="15.6094" y="6.0644" width="2.0668" height="1.07" filterUnits="userSpaceOnUse" color-interpolation-filters="sRGB">
<feFlood flood-opacity="0" result="BackgroundImageFix"/>
<feBlend mode="normal" in="SourceGraphic" in2="BackgroundImageFix" result="shape"/>
<feColorMatrix in="SourceAlpha" type="matrix" values="0 0 0 0 0 0 0 0 0 0 0 0 0 0 0 0 0 0 127 0" result="hardAlpha"/>
<feOffset dx="0.1" dy="-0.2"/>
<feGaussianBlur stdDeviation="0.125"/>
<feComposite in2="hardAlpha" operator="arithmetic" k2="-1" k3="1"/>
<feColorMatrix type="matrix" values="0 0 0 0 0.603922 0 0 0 0 0.243137 0 0 0 0 0.152941 0 0 0 1 0"/>
<feBlend mode="normal" in2="shape" result="effect1_innerShadow_432_156"/>
</filter>
<filter id="filter6_i_432_156" x="10.9902" y="6.07747" width="2.0668" height="1.05706" filterUnits="userSpaceOnUse" color-interpolation-filters="sRGB">
<feFlood flood-opacity="0" result="BackgroundImageFix"/>
<feBlend mode="normal" in="SourceGraphic" in2="BackgroundImageFix" result="shape"/>
<feColorMatrix in="SourceAlpha" type="matrix" values="0 0 0 0 0 0 0 0 0 0 0 0 0 0 0 0 0 0 127 0" result="hardAlpha"/>
<feOffset dx="0.1" dy="-0.2"/>
<feGaussianBlur stdDeviation="0.125"/>
<feComposite in2="hardAlpha" operator="arithmetic" k2="-1" k3="1"/>
<feColorMatrix type="matrix" values="0 0 0 0 0.603922 0 0 0 0 0.243137 0 0 0 0 0.152941 0 0 0 1 0"/>
<feBlend mode="normal" in2="shape" result="effect1_innerShadow_432_156"/>
</filter>
<filter id="filter7_f_432_156" x="8.83887" y="2.03882" width="5.8457" height="5.32544" filterUnits="userSpaceOnUse" color-interpolation-filters="sRGB">
<feFlood flood-opacity="0" result="BackgroundImageFix"/>
<feBlend mode="normal" in="SourceGraphic" in2="BackgroundImageFix" result="shape"/>
<feGaussianBlur stdDeviation="0.125" result="effect1_foregroundBlur_432_156"/>
</filter>
<filter id="filter8_f_432_156" x="14.0781" y="2.5376" width="5.61523" height="5.06665" filterUnits="userSpaceOnUse" color-interpolation-filters="sRGB">
<feFlood flood-opacity="0" result="BackgroundImageFix"/>
<feBlend mode="normal" in="SourceGraphic" in2="BackgroundImageFix" result="shape"/>
<feGaussianBlur stdDeviation="0.125" result="effect1_foregroundBlur_432_156"/>
</filter>
<filter id="filter9_f_432_156" x="15.4723" y="8.12217" width="0.715625" height="0.635425" filterUnits="userSpaceOnUse" color-interpolation-filters="sRGB">
<feFlood flood-opacity="0" result="BackgroundImageFix"/>
<feBlend mode="normal" in="SourceGraphic" in2="BackgroundImageFix" result="shape"/>
<feGaussianBlur stdDeviation="0.05" result="effect1_foregroundBlur_432_156"/>
</filter>
<filter id="filter10_f_432_156" x="16.1984" y="8.17561" width="0.830664" height="0.849951" filterUnits="userSpaceOnUse" color-interpolation-filters="sRGB">
<feFlood flood-opacity="0" result="BackgroundImageFix"/>
<feBlend mode="normal" in="SourceGraphic" in2="BackgroundImageFix" result="shape"/>
<feGaussianBlur stdDeviation="0.1" result="effect1_foregroundBlur_432_156"/>
</filter>
<filter id="filter11_f_432_156" x="12.2951" y="8.11982" width="0.913672" height="0.961157" filterUnits="userSpaceOnUse" color-interpolation-filters="sRGB">
<feFlood flood-opacity="0" result="BackgroundImageFix"/>
<feBlend mode="normal" in="SourceGraphic" in2="BackgroundImageFix" result="shape"/>
<feGaussianBlur stdDeviation="0.1" result="effect1_foregroundBlur_432_156"/>
</filter>
<filter id="filter12_f_432_156" x="11.6432" y="8.11484" width="0.825977" height="0.642627" filterUnits="userSpaceOnUse" color-interpolation-filters="sRGB">
<feFlood flood-opacity="0" result="BackgroundImageFix"/>
<feBlend mode="normal" in="SourceGraphic" in2="BackgroundImageFix" result="shape"/>
<feGaussianBlur stdDeviation="0.05" result="effect1_foregroundBlur_432_156"/>
</filter>
<filter id="filter13_f_432_156" x="8.88086" y="8.02295" width="1.22852" height="2.15076" filterUnits="userSpaceOnUse" color-interpolation-filters="sRGB">
<feFlood flood-opacity="0" result="BackgroundImageFix"/>
<feBlend mode="normal" in="SourceGraphic" in2="BackgroundImageFix" result="shape"/>
<feGaussianBlur stdDeviation="0.125" result="effect1_foregroundBlur_432_156"/>
</filter>
<filter id="filter14_f_432_156" x="18.3223" y="8.00928" width="1.33105" height="2.17188" filterUnits="userSpaceOnUse" color-interpolation-filters="sRGB">
<feFlood flood-opacity="0" result="BackgroundImageFix"/>
<feBlend mode="normal" in="SourceGraphic" in2="BackgroundImageFix" result="shape"/>
<feGaussianBlur stdDeviation="0.125" result="effect1_foregroundBlur_432_156"/>
</filter>
<filter id="filter15_f_432_156" x="10.873" y="6.12183" width="2.2041" height="1.11035" filterUnits="userSpaceOnUse" color-interpolation-filters="sRGB">
<feFlood flood-opacity="0" result="BackgroundImageFix"/>
<feBlend mode="normal" in="SourceGraphic" in2="BackgroundImageFix" result="shape"/>
<feGaussianBlur stdDeviation="0.125" result="effect1_foregroundBlur_432_156"/>
</filter>
<filter id="filter16_f_432_156" x="15.5127" y="6.08179" width="2.2041" height="1.11035" filterUnits="userSpaceOnUse" color-interpolation-filters="sRGB">
<feFlood flood-opacity="0" result="BackgroundImageFix"/>
<feBlend mode="normal" in="SourceGraphic" in2="BackgroundImageFix" result="shape"/>
<feGaussianBlur stdDeviation="0.125" result="effect1_foregroundBlur_432_156"/>
</filter>
<filter id="filter17_f_432_156" x="21.3105" y="2.89478" width="0.650391" height="7.29663" filterUnits="userSpaceOnUse" color-interpolation-filters="sRGB">
<feFlood flood-opacity="0" result="BackgroundImageFix"/>
<feBlend mode="normal" in="SourceGraphic" in2="BackgroundImageFix" result="shape"/>
<feGaussianBlur stdDeviation="0.125" result="effect1_foregroundBlur_432_156"/>
</filter>
<filter id="filter18_f_432_156" x="10.3129" y="20.2519" width="7.88105" height="5.92939" filterUnits="userSpaceOnUse" color-interpolation-filters="sRGB">
<feFlood flood-opacity="0" result="BackgroundImageFix"/>
<feBlend mode="normal" in="SourceGraphic" in2="BackgroundImageFix" result="shape"/>
<feGaussianBlur stdDeviation="0.075" result="effect1_foregroundBlur_432_156"/>
</filter>
<radialGradient id="paint0_radial_432_156" cx="0" cy="0" r="1" gradientUnits="userSpaceOnUse" gradientTransform="translate(20.6424 20.125) rotate(90) scale(9.51563 3.19922)">
<stop stop-color="#70647F"/>
<stop offset="1" stop-color="#70647F" stop-opacity="0"/>
</radialGradient>
<radialGradient id="paint1_radial_432_156" cx="0" cy="0" r="1" gradientUnits="userSpaceOnUse" gradientTransform="translate(7.87289 18.6758) scale(1.14844 6.17969)">
<stop stop-color="#5D516A"/>
<stop offset="1" stop-color="#5D516A" stop-opacity="0"/>
</radialGradient>
<radialGradient id="paint2_radial_432_156" cx="0" cy="0" r="1" gradientUnits="userSpaceOnUse" gradientTransform="translate(14.2607 18.5801) rotate(-90) scale(4.12891 11.9461)">
<stop stop-color="#47404D"/>
<stop offset="1" stop-color="#3B2D3A"/>
</radialGradient>
<radialGradient id="paint3_radial_432_156" cx="0" cy="0" r="1" gradientUnits="userSpaceOnUse" gradientTransform="translate(14.2539 14.6836) rotate(90) scale(5.19531 6.5993)">
<stop offset="0.931579" stop-color="#342542" stop-opacity="0"/>
<stop offset="0.994737" stop-color="#342542"/>
</radialGradient>
<radialGradient id="paint4_radial_432_156" cx="0" cy="0" r="1" gradientUnits="userSpaceOnUse" gradientTransform="translate(13.889 13.5078) rotate(145.631) scale(6.23621 8.5977)">
<stop offset="0.9281" stop-color="#6A656F" stop-opacity="0"/>
<stop offset="1" stop-color="#6A656F"/>
</radialGradient>
<radialGradient id="paint5_radial_432_156" cx="0" cy="0" r="1" gradientUnits="userSpaceOnUse" gradientTransform="translate(13.6702 13.3027) rotate(34.2663) scale(7.16325 9.87579)">
<stop offset="0.933129" stop-color="#6A656F" stop-opacity="0"/>
<stop offset="1" stop-color="#615B67"/>
</radialGradient>
<radialGradient id="paint6_radial_432_156" cx="0" cy="0" r="1" gradientUnits="userSpaceOnUse" gradientTransform="translate(14.2539 20.5625) rotate(-90) scale(8.80469 9.31469)">
<stop offset="0.506211" stop-color="#57525D" stop-opacity="0"/>
<stop offset="1" stop-color="#57525D"/>
</radialGradient>
<radialGradient id="paint7_radial_432_156" cx="0" cy="0" r="1" gradientUnits="userSpaceOnUse" gradientTransform="translate(14.2539 13.3027) rotate(90) scale(3.37695 4.4118)">
<stop offset="0.316364" stop-color="#361E27"/>
<stop offset="1" stop-color="#361E27" stop-opacity="0"/>
</radialGradient>
<radialGradient id="paint8_radial_432_156" cx="0" cy="0" r="1" gradientUnits="userSpaceOnUse" gradientTransform="translate(19.0879 10.1519) rotate(103.169) scale(3.36326 3.99529)">
<stop offset="0.0431525" stop-color="#FFC135"/>
<stop offset="1" stop-color="#E26839"/>
</radialGradient>
<radialGradient id="paint9_radial_432_156" cx="0" cy="0" r="1" gradientUnits="userSpaceOnUse" gradientTransform="translate(18.4327 10.3874) rotate(53.9017) scale(0.437303 0.371496)">
<stop stop-color="#E18C2A"/>
<stop offset="1" stop-color="#E18C2A" stop-opacity="0"/>
</radialGradient>
<radialGradient id="paint10_radial_432_156" cx="0" cy="0" r="1" gradientUnits="userSpaceOnUse" gradientTransform="translate(9.33788 10.2555) rotate(71.2338) scale(3.63974 1.65443)">
<stop stop-color="#D57A26"/>
<stop offset="1" stop-color="#D06A3C"/>
</radialGradient>
<radialGradient id="paint11_radial_432_156" cx="0" cy="0" r="1" gradientUnits="userSpaceOnUse" gradientTransform="translate(9.91942 10.2482) rotate(72.2903) scale(0.919577 0.80666)">
<stop offset="0.263377" stop-color="#BE691E"/>
<stop offset="0.977292" stop-color="#BE691E" stop-opacity="0"/>
</radialGradient>
<radialGradient id="paint12_radial_432_156" cx="0" cy="0" r="1" gradientUnits="userSpaceOnUse" gradientTransform="translate(15.4749 15.9824) rotate(-135.444) scale(1.24714 2.63618)">
<stop stop-color="#D89D21"/>
<stop offset="1" stop-color="#CF7B39"/>
</radialGradient>
<radialGradient id="paint13_radial_432_156" cx="0" cy="0" r="1" gradientUnits="userSpaceOnUse" gradientTransform="translate(16.6795 9.32546) rotate(180) scale(4.59346 8.12578)">
<stop stop-color="#FFE846"/>
<stop offset="1" stop-color="#F5A129"/>
</radialGradient>
<radialGradient id="paint14_radial_432_156" cx="0" cy="0" r="1" gradientUnits="userSpaceOnUse" gradientTransform="translate(14.6818 7.10939) rotate(94.7148) scale(7.98405 9.15083)">
<stop offset="0.623188" stop-color="#FBA036" stop-opacity="0"/>
<stop offset="0.979213" stop-color="#C56B42"/>
</radialGradient>
<radialGradient id="paint15_radial_432_156" cx="0" cy="0" r="1" gradientUnits="userSpaceOnUse" gradientTransform="translate(18.7439 9.12192) rotate(93.7745) scale(5.37312 1.97538)">
<stop offset="0.389903" stop-color="#FFD930"/>
<stop offset="1" stop-color="#FFD930" stop-opacity="0"/>
</radialGradient>
<radialGradient id="paint16_radial_432_156" cx="0" cy="0" r="1" gradientUnits="userSpaceOnUse" gradientTransform="translate(12.3748 8.28827) rotate(-90) scale(1.24229 1.49565)">
<stop offset="0.276316" stop-color="#F59632"/>
<stop offset="1" stop-color="#F59632" stop-opacity="0"/>
</radialGradient>
<radialGradient id="paint17_radial_432_156" cx="0" cy="0" r="1" gradientUnits="userSpaceOnUse" gradientTransform="translate(16.3991 7.92662) rotate(-90) scale(1.34894 1.74962)">
<stop offset="0.178218" stop-color="#FFBE3A"/>
<stop offset="1" stop-color="#FFBE3A" stop-opacity="0"/>
</radialGradient>
<radialGradient id="paint18_radial_432_156" cx="0" cy="0" r="1" gradientUnits="userSpaceOnUse" gradientTransform="translate(13.6719 3.90344) rotate(90) scale(2.17208 5.55322)">
<stop offset="0.633626" stop-color="#E28222"/>
<stop offset="1" stop-color="#E28222" stop-opacity="0"/>
</radialGradient>
<linearGradient id="paint19_linear_432_156" x1="14.2122" y1="10.053" x2="14.963" y2="10.053" gradientUnits="userSpaceOnUse">
<stop stop-color="#FFC92F"/>
<stop offset="1" stop-color="#FFEA47"/>
</linearGradient>
<linearGradient id="paint20_linear_432_156" x1="13.2699" y1="9.91637" x2="14.2134" y2="9.96843" gradientUnits="userSpaceOnUse">
<stop stop-color="#F49F22"/>
<stop offset="1" stop-color="#E88830" stop-opacity="0"/>
<stop offset="1" stop-color="#F49F22" stop-opacity="0"/>
</linearGradient>
<linearGradient id="paint21_linear_432_156" x1="14.2122" y1="10.4033" x2="14.2122" y2="11.1515" gradientUnits="userSpaceOnUse">
<stop stop-color="#E88830" stop-opacity="0"/>
<stop offset="0.844655" stop-color="#E88830"/>
</linearGradient>
<linearGradient id="paint22_linear_432_156" x1="14.2122" y1="8.42908" x2="14.2122" y2="8.79745" gradientUnits="userSpaceOnUse">
<stop stop-color="#FAC137"/>
<stop offset="1" stop-color="#FAC137" stop-opacity="0"/>
</linearGradient>
<radialGradient id="paint23_radial_432_156" cx="0" cy="0" r="1" gradientUnits="userSpaceOnUse" gradientTransform="translate(13.2226 12.2154) rotate(-60.732) scale(0.623926 1.81565)">
<stop stop-color="#FFB534"/>
<stop offset="1" stop-color="#FFB534" stop-opacity="0"/>
</radialGradient>
<radialGradient id="paint24_radial_432_156" cx="0" cy="0" r="1" gradientUnits="userSpaceOnUse" gradientTransform="translate(14.2127 12.4353) rotate(-90) scale(0.633276 2.54783)">
<stop stop-color="#89014E"/>
<stop offset="1" stop-color="#87004D"/>
</radialGradient>
<linearGradient id="paint25_linear_432_156" x1="18.9257" y1="4.34995" x2="10.0304" y2="4.34995" gradientUnits="userSpaceOnUse">
<stop stop-color="#FFE235"/>
<stop offset="1" stop-color="#D29935"/>
</linearGradient>
<radialGradient id="paint26_radial_432_156" cx="0" cy="0" r="1" gradientUnits="userSpaceOnUse" gradientTransform="translate(9.61799 7.93543) rotate(-90) scale(5.02499 8.90328)">
<stop offset="0.314517" stop-color="#C98537"/>
<stop offset="1" stop-color="#C98537" stop-opacity="0"/>
</radialGradient>
<radialGradient id="paint27_radial_432_156" cx="0" cy="0" r="1" gradientUnits="userSpaceOnUse" gradientTransform="translate(18.4839 7.93543) rotate(-90) scale(3.19184 5.6553)">
<stop stop-color="#FFB52A"/>
<stop offset="1" stop-color="#FFB52A" stop-opacity="0"/>
</radialGradient>
<radialGradient id="paint28_radial_432_156" cx="0" cy="0" r="1" gradientUnits="userSpaceOnUse" gradientTransform="translate(17.8211 2.42067) rotate(-160.666) scale(3.82384 2.03645)">
<stop offset="0.347073" stop-color="#FFE639"/>
<stop offset="1" stop-color="#FFE639" stop-opacity="0"/>
</radialGradient>
<radialGradient id="paint29_radial_432_156" cx="0" cy="0" r="1" gradientUnits="userSpaceOnUse" gradientTransform="translate(13.4176 1.02157) rotate(58.4652) scale(1.52056 3.5209)">
<stop offset="0.286771" stop-color="#F3C130"/>
<stop offset="1" stop-color="#F3C130" stop-opacity="0"/>
</radialGradient>
<radialGradient id="paint30_radial_432_156" cx="0" cy="0" r="1" gradientUnits="userSpaceOnUse" gradientTransform="translate(14.4349 2.28882) rotate(160.16) scale(3.55603 0.989726)">
<stop stop-color="#FFDD30"/>
<stop offset="1" stop-color="#FFDC2B" stop-opacity="0"/>
</radialGradient>
<radialGradient id="paint31_radial_432_156" cx="0" cy="0" r="1" gradientUnits="userSpaceOnUse" gradientTransform="translate(9.44049 6.47067) rotate(-57.7244) scale(5.2953 5.86665)">
<stop offset="0.0926981" stop-color="#D67227"/>
<stop offset="0.233498" stop-color="#EF8A23"/>
<stop offset="1" stop-color="#EF8A23" stop-opacity="0"/>
</radialGradient>
<radialGradient id="paint32_radial_432_156" cx="0" cy="0" r="1" gradientUnits="userSpaceOnUse" gradientTransform="translate(17.3942 3.3084) rotate(13.3074) scale(3.05701 1.70969)">
<stop stop-color="#FFEB3B"/>
<stop offset="1" stop-color="#FFEB3B" stop-opacity="0"/>
</radialGradient>
<radialGradient id="paint33_radial_432_156" cx="0" cy="0" r="1" gradientUnits="userSpaceOnUse" gradientTransform="translate(18.7197 7.35427) rotate(-120.119) scale(3.76222 2.09816)">
<stop stop-color="#EB8F29"/>
<stop offset="1" stop-color="#EB8F29" stop-opacity="0"/>
</radialGradient>
<radialGradient id="paint34_radial_432_156" cx="0" cy="0" r="1" gradientUnits="userSpaceOnUse" gradientTransform="translate(18.1748 7.09052) rotate(-120.695) scale(2.25033 1.61181)">
<stop offset="0.394122" stop-color="#E48421"/>
<stop offset="1" stop-color="#E48421" stop-opacity="0"/>
</radialGradient>
<radialGradient id="paint35_radial_432_156" cx="0" cy="0" r="1" gradientUnits="userSpaceOnUse" gradientTransform="translate(18.4251 3.20578) rotate(166.509) scale(4.33579 4.68715)">
<stop offset="0.734853" stop-color="#F29415" stop-opacity="0"/>
<stop offset="1" stop-color="#F29415"/>
</radialGradient>
<radialGradient id="paint36_radial_432_156" cx="0" cy="0" r="1" gradientUnits="userSpaceOnUse" gradientTransform="translate(17.2469 3.09584) rotate(107.002) scale(0.352574 1.61192)">
<stop offset="0.461072" stop-color="#FFCE3C"/>
<stop offset="1" stop-color="#FFCE3C" stop-opacity="0"/>
</radialGradient>
<radialGradient id="paint37_radial_432_156" cx="0" cy="0" r="1" gradientUnits="userSpaceOnUse" gradientTransform="translate(16.1294 8.52032) rotate(90) scale(0.71264 1.13353)">
<stop offset="0.80198" stop-color="#925C51"/>
<stop offset="1" stop-color="#694B43"/>
<stop offset="1" stop-color="#804D49"/>
<stop offset="1" stop-color="#85534D"/>
</radialGradient>
<radialGradient id="paint38_radial_432_156" cx="0" cy="0" r="1" gradientUnits="userSpaceOnUse" gradientTransform="translate(15.9289 8.59414) rotate(-127.812) scale(0.331885 0.456927)">
<stop offset="0.765532" stop-color="#FFE6E2" stop-opacity="0"/>
<stop offset="0.966159" stop-color="#FFE6E2"/>
</radialGradient>
<linearGradient id="paint39_linear_432_156" x1="16.8123" y1="8.56726" x2="16.5373" y2="8.7367" gradientUnits="userSpaceOnUse">
<stop stop-color="#B4948D"/>
<stop offset="1" stop-color="#B4948D" stop-opacity="0"/>
</linearGradient>
<radialGradient id="paint40_radial_432_156" cx="0" cy="0" r="1" gradientUnits="userSpaceOnUse" gradientTransform="translate(12.2945 8.52034) rotate(90) scale(0.712676 1.13359)">
<stop offset="0.80198" stop-color="#925C51"/>
<stop offset="1" stop-color="#694B43"/>
<stop offset="1" stop-color="#804D49"/>
<stop offset="1" stop-color="#85534D"/>
</radialGradient>
<linearGradient id="paint41_linear_432_156" x1="12.9481" y1="8.56704" x2="12.6731" y2="8.73648" gradientUnits="userSpaceOnUse">
<stop stop-color="#B4948D"/>
<stop offset="1" stop-color="#B4948D" stop-opacity="0"/>
</linearGradient>
<radialGradient id="paint42_radial_432_156" cx="0" cy="0" r="1" gradientUnits="userSpaceOnUse" gradientTransform="translate(12.0427 8.7125) rotate(-90.897) scale(0.433531 0.521122)">
<stop offset="0.765532" stop-color="#FFE6E2" stop-opacity="0"/>
<stop offset="0.966159" stop-color="#FFE6E2"/>
</radialGradient>
<linearGradient id="paint43_linear_432_156" x1="19.8678" y1="8.59159" x2="18.8074" y2="10.5037" gradientUnits="userSpaceOnUse">
<stop stop-color="#FFE343"/>
<stop offset="1" stop-color="#FFC136"/>
</linearGradient>
<radialGradient id="paint44_radial_432_156" cx="0" cy="0" r="1" gradientUnits="userSpaceOnUse" gradientTransform="translate(18.2698 8.53268) rotate(74.3475) scale(2.04697 1.95296)">
<stop offset="0.856273" stop-color="#E1943D" stop-opacity="0"/>
<stop offset="1" stop-color="#E08F2E"/>
</radialGradient>
<radialGradient id="paint45_radial_432_156" cx="0" cy="0" r="1" gradientUnits="userSpaceOnUse" gradientTransform="translate(18.5865 9.01132) rotate(-53.9199) scale(1.17535 0.985181)">
<stop offset="0.663731" stop-color="#FFBD22"/>
<stop offset="1" stop-color="#FFBD22" stop-opacity="0"/>
</radialGradient>
<linearGradient id="paint46_linear_432_156" x1="9.07307" y1="9.21035" x2="10.3544" y2="9.09845" gradientUnits="userSpaceOnUse">
<stop stop-color="#E39726"/>
<stop offset="1" stop-color="#D9851D"/>
</linearGradient>
<radialGradient id="paint47_radial_432_156" cx="0" cy="0" r="1" gradientUnits="userSpaceOnUse" gradientTransform="translate(9.58853 8.68017) rotate(101.248) scale(1.85983 1.82838)">
<stop offset="0.77507" stop-color="#C77937" stop-opacity="0"/>
<stop offset="1" stop-color="#C77937"/>
</radialGradient>
<linearGradient id="paint48_linear_432_156" x1="20.9827" y1="7.7238" x2="22.0205" y2="7.7238" gradientUnits="userSpaceOnUse">
<stop stop-color="#33203C"/>
<stop offset="1" stop-color="#61546D"/>
</linearGradient>
<radialGradient id="paint49_radial_432_156" cx="0" cy="0" r="1" gradientUnits="userSpaceOnUse" gradientTransform="translate(21.7571 10.1092) rotate(-90) scale(2.04289 0.157775)">
<stop stop-color="#70635D"/>
<stop offset="1" stop-color="#70635D" stop-opacity="0"/>
</radialGradient>
<radialGradient id="paint50_radial_432_156" cx="0" cy="0" r="1" gradientUnits="userSpaceOnUse" gradientTransform="translate(16.6782 5.26418) rotate(-102.428) scale(3.4305 18.3018)">
<stop stop-color="#534D5B"/>
<stop offset="1" stop-color="#2B2135"/>
</radialGradient>
<linearGradient id="paint51_linear_432_156" x1="15.8031" y1="3.36328" x2="14.682" y2="-0.464844" gradientUnits="userSpaceOnUse">
<stop stop-color="#3D294B"/>
<stop offset="1" stop-color="#433A4D"/>
</linearGradient>
<radialGradient id="paint52_radial_432_156" cx="0" cy="0" r="1" gradientUnits="userSpaceOnUse" gradientTransform="translate(19.2758 1.99609) rotate(90) scale(0.820313 11.1016)">
<stop stop-color="#696070"/>
<stop offset="0.866667" stop-color="#696070" stop-opacity="0"/>
</radialGradient>
<radialGradient id="paint53_radial_432_156" cx="0" cy="0" r="1" gradientUnits="userSpaceOnUse" gradientTransform="translate(6.17812 2.54297) scale(6.78125 0.765625)">
<stop stop-color="#75707B"/>
<stop offset="0.935484" stop-color="#75707B" stop-opacity="0"/>
</radialGradient>
<radialGradient id="paint54_radial_432_156" cx="0" cy="0" r="1" gradientUnits="userSpaceOnUse" gradientTransform="translate(21.9831 10.4342) rotate(126.437) scale(1.19712 1.07289)">
<stop stop-color="#686071"/>
<stop offset="0.661286" stop-color="#402A4C"/>
</radialGradient>
<radialGradient id="paint55_radial_432_156" cx="0" cy="0" r="1" gradientUnits="userSpaceOnUse" gradientTransform="translate(20.8125 10.7768) rotate(-6.43681) scale(0.701233 0.822475)">
<stop offset="0.0866887" stop-color="#685352"/>
<stop offset="1" stop-color="#685352" stop-opacity="0"/>
</radialGradient>
<linearGradient id="paint56_linear_432_156" x1="22.1357" y1="3.14478" x2="22.1357" y2="9.94138" gradientUnits="userSpaceOnUse">
<stop stop-color="#60546C"/>
<stop offset="1" stop-color="#504B55"/>
</linearGradient>
<linearGradient id="paint57_linear_432_156" x1="22.5524" y1="12.8554" x2="20.5231" y2="12.8554" gradientUnits="userSpaceOnUse">
<stop stop-color="#F9B72A"/>
<stop offset="0.89726" stop-color="#FAAC28"/>
</linearGradient>
<radialGradient id="paint58_radial_432_156" cx="0" cy="0" r="1" gradientUnits="userSpaceOnUse" gradientTransform="translate(22.6497 12.7492) rotate(169.33) scale(0.975903 4.86851)">
<stop offset="0.285799" stop-color="#FFD93A"/>
<stop offset="1" stop-color="#FFD93A" stop-opacity="0"/>
</radialGradient>
<radialGradient id="paint59_radial_432_156" cx="0" cy="0" r="1" gradientUnits="userSpaceOnUse" gradientTransform="translate(21.545 14.6837) rotate(-90) scale(1.14844 2.52913)">
<stop offset="0.421677" stop-color="#A16739"/>
<stop offset="1" stop-color="#DB9820" stop-opacity="0"/>
</radialGradient>
<radialGradient id="paint60_radial_432_156" cx="0" cy="0" r="1" gradientUnits="userSpaceOnUse" gradientTransform="translate(21.545 11.3683) rotate(90) scale(0.348633 1.20905)">
<stop offset="0.16129" stop-color="#845D03"/>
<stop offset="1" stop-color="#EBA429" stop-opacity="0"/>
</radialGradient>
<radialGradient id="paint61_radial_432_156" cx="0" cy="0" r="1" gradientUnits="userSpaceOnUse" gradientTransform="translate(4.63281 26.1455) rotate(-90) scale(14.3267 3.81906)">
<stop stop-color="#766C83"/>
<stop offset="0.441285" stop-color="#58496A"/>
<stop offset="1" stop-color="#4D4159"/>
</radialGradient>
<radialGradient id="paint62_radial_432_156" cx="0" cy="0" r="1" gradientUnits="userSpaceOnUse" gradientTransform="translate(7.92757 26.1455) rotate(-90) scale(9.20513 0.72111)">
<stop offset="0.285977" stop-color="#4F445B"/>
<stop offset="1" stop-color="#4F445B" stop-opacity="0"/>
</radialGradient>
<linearGradient id="paint63_linear_432_156" x1="8.05372" y1="24.4557" x2="7.68154" y2="24.4557" gradientUnits="userSpaceOnUse">
<stop offset="0.444444" stop-color="#433850"/>
<stop offset="1" stop-color="#433850" stop-opacity="0"/>
</linearGradient>
<radialGradient id="paint64_radial_432_156" cx="0" cy="0" r="1" gradientUnits="userSpaceOnUse" gradientTransform="translate(22.2266 26.1455) rotate(-100.465) scale(9.06984 2.54738)">
<stop stop-color="#736782"/>
<stop offset="1" stop-color="#5F5070"/>
</radialGradient>
<radialGradient id="paint65_radial_432_156" cx="0" cy="0" r="1" gradientUnits="userSpaceOnUse" gradientTransform="translate(20.4319 20.1618) rotate(87.4134) scale(10.54 0.615543)">
<stop offset="0.176695" stop-color="#3F2A51"/>
<stop offset="1" stop-color="#3F2A51" stop-opacity="0"/>
</radialGradient>
<linearGradient id="paint66_linear_432_156" x1="14.2534" y1="26.0312" x2="14.2534" y2="20.4019" gradientUnits="userSpaceOnUse">
<stop stop-color="#3F3748"/>
<stop offset="1" stop-color="#3F3748" stop-opacity="0"/>
</linearGradient>
<linearGradient id="paint67_linear_432_156" x1="14.2534" y1="26.0312" x2="14.2534" y2="20.4019" gradientUnits="userSpaceOnUse">
<stop stop-color="#3F3748"/>
<stop offset="1" stop-color="#3F3748" stop-opacity="0"/>
</linearGradient>
<linearGradient id="paint68_linear_432_156" x1="14.2534" y1="26.0312" x2="14.2534" y2="20.4019" gradientUnits="userSpaceOnUse">
<stop stop-color="#3F3748"/>
<stop offset="1" stop-color="#3F3748" stop-opacity="0"/>
</linearGradient>
</defs>
</svg>
