<svg width="385" height="122" viewBox="0 0 385 122" fill="none" xmlns="http://www.w3.org/2000/svg">
<path d="M11.76 98V80.752H30.016V45.92H11.76V32.928C15.2693 32.704 19.0027 31.9947 22.96 30.8C26.992 29.6053 30.912 28.112 34.72 26.32C38.528 24.528 41.888 22.6987 44.8 20.832H52.304V80.752H69.888V98H11.76ZM112.111 99.344C105.764 99.344 100.463 98.4107 96.2071 96.544C91.9511 94.6027 88.5911 91.8773 86.1271 88.368C83.6631 84.8587 81.9085 80.6773 80.8631 75.824C79.8178 70.896 79.2951 65.4453 79.2951 59.472C79.2951 53.4987 79.8178 48.0853 80.8631 43.232C81.9085 38.304 83.6631 34.0853 86.1271 30.576C88.5911 27.0667 91.9511 24.3787 96.2071 22.512C100.463 20.5707 105.764 19.6 112.111 19.6C118.532 19.6 123.834 20.5707 128.015 22.512C132.271 24.3787 135.594 27.0667 137.983 30.576C140.447 34.0853 142.202 38.304 143.247 43.232C144.292 48.0853 144.815 53.4987 144.815 59.472C144.815 65.4453 144.292 70.896 143.247 75.824C142.202 80.6773 140.447 84.8587 137.983 88.368C135.594 91.8773 132.271 94.6027 128.015 96.544C123.834 98.4107 118.532 99.344 112.111 99.344ZM112.111 84.224C114.724 84.224 116.815 83.552 118.383 82.208C119.951 80.864 121.071 78.7733 121.743 75.936C122.415 73.0987 122.751 69.44 122.751 64.96V53.872C122.751 49.3173 122.415 45.6587 121.743 42.896C121.071 40.0587 119.951 38.0053 118.383 36.736C116.815 35.392 114.724 34.72 112.111 34.72C109.498 34.72 107.407 35.392 105.839 36.736C104.271 38.0053 103.114 40.0587 102.367 42.896C101.695 45.6587 101.359 49.3173 101.359 53.872V64.96C101.359 69.44 101.695 73.0987 102.367 75.936C103.114 78.7733 104.271 80.864 105.839 82.208C107.407 83.552 109.498 84.224 112.111 84.224ZM186.814 99.344C180.468 99.344 175.166 98.4107 170.91 96.544C166.654 94.6027 163.294 91.8773 160.83 88.368C158.366 84.8587 156.612 80.6773 155.566 75.824C154.521 70.896 153.998 65.4453 153.998 59.472C153.998 53.4987 154.521 48.0853 155.566 43.232C156.612 38.304 158.366 34.0853 160.83 30.576C163.294 27.0667 166.654 24.3787 170.91 22.512C175.166 20.5707 180.468 19.6 186.814 19.6C193.236 19.6 198.537 20.5707 202.718 22.512C206.974 24.3787 210.297 27.0667 212.686 30.576C215.15 34.0853 216.905 38.304 217.95 43.232C218.996 48.0853 219.518 53.4987 219.518 59.472C219.518 65.4453 218.996 70.896 217.95 75.824C216.905 80.6773 215.15 84.8587 212.686 88.368C210.297 91.8773 206.974 94.6027 202.718 96.544C198.537 98.4107 193.236 99.344 186.814 99.344ZM186.814 84.224C189.428 84.224 191.518 83.552 193.086 82.208C194.654 80.864 195.774 78.7733 196.446 75.936C197.118 73.0987 197.454 69.44 197.454 64.96V53.872C197.454 49.3173 197.118 45.6587 196.446 42.896C195.774 40.0587 194.654 38.0053 193.086 36.736C191.518 35.392 189.428 34.72 186.814 34.72C184.201 34.72 182.11 35.392 180.542 36.736C178.974 38.0053 177.817 40.0587 177.07 42.896C176.398 45.6587 176.062 49.3173 176.062 53.872V64.96C176.062 69.44 176.398 73.0987 177.07 75.936C177.817 78.7733 178.974 80.864 180.542 82.208C182.11 83.552 184.201 84.224 186.814 84.224ZM224.557 98L247.293 66.64L226.797 38.864H253.005L262.413 54.544H262.861L272.269 38.864H296.909L276.077 67.2L298.253 98H272.269L261.069 79.408H260.621L249.309 98H224.557Z" fill="#1BCA92"/>
<path d="M313.592 98V76.048H325.24C326.456 76.048 327.523 76.272 328.44 76.72C329.357 77.1467 330.072 77.7653 330.584 78.576C331.117 79.3867 331.384 80.336 331.384 81.424C331.384 82.256 331.224 83.0133 330.904 83.696C330.605 84.3787 330.179 84.9547 329.624 85.424C329.091 85.8933 328.483 86.2453 327.8 86.48V86.608C328.589 86.7787 329.293 87.0987 329.912 87.568C330.552 88.016 331.053 88.6133 331.416 89.36C331.8 90.0853 331.992 90.96 331.992 91.984C331.992 93.3707 331.683 94.512 331.064 95.408C330.467 96.304 329.667 96.9653 328.664 97.392C327.661 97.7973 326.52 98 325.24 98H313.592ZM317.176 94.928H324.952C325.933 94.928 326.733 94.672 327.352 94.16C327.992 93.6267 328.312 92.7733 328.312 91.6C328.312 90.896 328.173 90.2987 327.896 89.808C327.64 89.296 327.245 88.912 326.712 88.656C326.179 88.3787 325.507 88.24 324.696 88.24H317.176V94.928ZM317.176 85.232H324.408C325.091 85.232 325.677 85.104 326.168 84.848C326.659 84.592 327.032 84.2293 327.288 83.76C327.565 83.2907 327.704 82.768 327.704 82.192C327.704 81.1467 327.416 80.3787 326.84 79.888C326.285 79.376 325.549 79.12 324.632 79.12H317.176V85.232ZM336.061 98V76.048H339.645V85.232H350.781V76.048H354.365V98H350.781V88.304H339.645V98H336.061ZM359.561 98V76.048H365.161L369.417 89.36C369.545 89.744 369.673 90.1813 369.801 90.672C369.929 91.1627 370.046 91.632 370.153 92.08C370.281 92.528 370.377 92.9227 370.441 93.264H370.697C370.739 92.944 370.814 92.56 370.921 92.112C371.027 91.664 371.134 91.1947 371.241 90.704C371.369 90.2133 371.497 89.7547 371.625 89.328L375.913 76.048H381.417V98H377.865V85.968C377.865 85.1573 377.875 84.3147 377.897 83.44C377.918 82.5653 377.939 81.7867 377.961 81.104C377.982 80.4213 377.993 79.984 377.993 79.792H377.737C377.694 80.0267 377.587 80.432 377.417 81.008C377.267 81.5627 377.107 82.16 376.937 82.8C376.766 83.44 376.606 83.9947 376.457 84.464L372.009 98H368.841L364.393 84.496C364.265 84.0907 364.126 83.6107 363.977 83.056C363.827 82.5013 363.678 81.936 363.529 81.36C363.379 80.784 363.251 80.2613 363.145 79.792H362.889C362.91 80.304 362.921 80.9333 362.921 81.68C362.942 82.4267 362.963 83.184 362.985 83.952C363.006 84.6987 363.017 85.3707 363.017 85.968V98H359.561Z" fill="#1BCA92"/>
</svg>
