<svg width="200" height="200" viewBox="0 0 200 200" fill="none" xmlns="http://www.w3.org/2000/svg">
<path d="M99.6719 157.377C45.2457 157.377 0.983398 132.131 0.983398 100.656C0.983398 69.1802 45.2457 43.9343 99.6719 43.6064C154.098 43.6064 198.36 68.8523 198.36 100.328C198.033 131.803 154.098 157.049 99.6719 157.377Z" fill="#FCEABB"/>
<path d="M101.106 66.6772C78.3439 66.6772 59.8564 85.1272 59.8564 107.927V121.052H142.319V107.927C142.319 85.1272 123.869 66.6772 101.106 66.6772Z" fill="#56436B"/>
<path d="M101.106 66.6772C78.3439 66.6772 59.8564 85.1272 59.8564 107.927V121.052H142.319V107.927C142.319 85.1272 123.869 66.6772 101.106 66.6772Z" fill="url(#paint0_radial_222_2776)"/>
<path d="M101.106 66.6772C78.3439 66.6772 59.8564 85.1272 59.8564 107.927V121.052H142.319V107.927C142.319 85.1272 123.869 66.6772 101.106 66.6772Z" fill="url(#paint1_radial_222_2776)"/>
<path d="M127.639 75.9648C127.687 75.8652 127.663 75.7464 127.58 75.6731C120.582 69.4512 111.077 66.0117 101.117 66.0117C91.157 66.0117 81.5948 69.4881 74.5958 75.6735C74.5132 75.7466 74.4888 75.8653 74.536 75.965C79.2486 85.9346 88.6481 93.7266 101.117 93.7266C113.586 93.7266 122.892 85.9345 127.639 75.9648Z" fill="url(#paint2_radial_222_2776)"/>
<path d="M127.639 75.9648C127.687 75.8652 127.663 75.7464 127.58 75.6731C120.582 69.4512 111.077 66.0117 101.117 66.0117C91.157 66.0117 81.5948 69.4881 74.5958 75.6735C74.5132 75.7466 74.4888 75.8653 74.536 75.965C79.2486 85.9346 88.6481 93.7266 101.117 93.7266C113.586 93.7266 122.892 85.9345 127.639 75.9648Z" fill="url(#paint3_radial_222_2776)"/>
<path d="M127.639 75.9648C127.687 75.8652 127.663 75.7464 127.58 75.6731C120.582 69.4512 111.077 66.0117 101.117 66.0117C91.157 66.0117 81.5948 69.4881 74.5958 75.6735C74.5132 75.7466 74.4888 75.8653 74.536 75.965C79.2486 85.9346 88.6481 93.7266 101.117 93.7266C113.586 93.7266 122.892 85.9345 127.639 75.9648Z" fill="url(#paint4_radial_222_2776)"/>
<path d="M127.639 75.9648C127.687 75.8652 127.663 75.7464 127.58 75.6731C120.582 69.4512 111.077 66.0117 101.117 66.0117C91.157 66.0117 81.5948 69.4881 74.5958 75.6735C74.5132 75.7466 74.4888 75.8653 74.536 75.965C79.2486 85.9346 88.6481 93.7266 101.117 93.7266C113.586 93.7266 122.892 85.9345 127.639 75.9648Z" fill="url(#paint5_radial_222_2776)"/>
<path d="M127.639 75.9648C127.687 75.8652 127.663 75.7464 127.58 75.6731C120.582 69.4512 111.077 66.0117 101.117 66.0117C91.157 66.0117 81.5948 69.4881 74.5958 75.6735C74.5132 75.7466 74.4888 75.8653 74.536 75.965C79.2486 85.9346 88.6481 93.7266 101.117 93.7266C113.586 93.7266 122.892 85.9345 127.639 75.9648Z" fill="url(#paint6_radial_222_2776)"/>
<path d="M127.639 75.9648C127.687 75.8652 127.663 75.7464 127.58 75.6731C120.582 69.4512 111.077 66.0117 101.117 66.0117C91.157 66.0117 81.5948 69.4881 74.5958 75.6735C74.5132 75.7466 74.4888 75.8653 74.536 75.965C79.2486 85.9346 88.6481 93.7266 101.117 93.7266C113.586 93.7266 122.892 85.9345 127.639 75.9648Z" fill="url(#paint7_radial_222_2776)"/>
<path d="M119.219 53.6695C120.481 53.6288 121.663 53.2009 122.624 52.5081V56.0128C122.624 59.3749 120.621 62.3702 117.576 63.6131C118.217 62.2479 118.658 60.7605 118.878 59.1711L119.219 53.6695Z" fill="url(#paint8_radial_222_2776)"/>
<path d="M119.219 53.6695C120.481 53.6288 121.663 53.2009 122.624 52.5081V56.0128C122.624 59.3749 120.621 62.3702 117.576 63.6131C118.217 62.2479 118.658 60.7605 118.878 59.1711L119.219 53.6695Z" fill="url(#paint9_radial_222_2776)"/>
<path d="M82.6035 53.6722C81.3415 53.6314 80.1597 53.2035 79.1982 52.5107V56.0155C79.1982 59.3776 81.2013 62.3729 84.246 63.6158C83.605 62.2506 83.1643 60.7631 82.944 59.1738L82.6035 53.6722Z" fill="url(#paint10_radial_222_2776)"/>
<path d="M82.6035 53.6722C81.3415 53.6314 80.1597 53.2035 79.1982 52.5107V56.0155C79.1982 59.3776 81.2013 62.3729 84.246 63.6158C83.605 62.2506 83.1643 60.7631 82.944 59.1738L82.6035 53.6722Z" fill="url(#paint11_radial_222_2776)"/>
<path d="M99.9865 79.3149C100.222 79.4763 100.623 79.615 101.037 79.6294C101.45 79.615 101.851 79.4763 102.087 79.3149C105.9 76.7052 108.762 74.1054 108.762 69.6153V55.9899C108.762 51.7149 105.312 48.2649 101.037 48.2649C96.7615 48.2649 93.3115 51.7149 93.3115 55.9899V69.6153C93.3115 74.1054 96.1732 76.7052 99.9865 79.3149Z" fill="url(#paint12_radial_222_2776)"/>
<g filter="url(#filter0_ii_222_2776)">
<path d="M82.742 59.378C83.7108 66.7299 89.9673 72.2035 97.3742 72.2035H104.478C111.885 72.2035 118.142 66.7299 119.111 59.378C119.555 52.2847 120.002 45.2199 120.331 38.1303C120.291 35.242 118.014 32.8587 115.138 32.7375H109.866C106.271 32.7375 103.015 30.6168 101.537 27.3044C101.158 26.3551 100.239 25.729 99.2205 25.729H94.4272C87.4769 25.729 81.8447 31.4247 81.8447 38.4534C81.8447 45.4602 82.2824 52.3536 82.742 59.378Z" fill="url(#paint13_radial_222_2776)"/>
</g>
<path d="M82.742 59.378C83.7108 66.7299 89.9673 72.2035 97.3742 72.2035H104.478C111.885 72.2035 118.142 66.7299 119.111 59.378C119.555 52.2847 120.002 45.2199 120.331 38.1303C120.291 35.242 118.014 32.8587 115.138 32.7375H109.866C106.271 32.7375 103.015 30.6168 101.537 27.3044C101.158 26.3551 100.239 25.729 99.2205 25.729H94.4272C87.4769 25.729 81.8447 31.4247 81.8447 38.4534C81.8447 45.4602 82.2824 52.3536 82.742 59.378Z" fill="url(#paint14_radial_222_2776)"/>
<path d="M82.742 59.378C83.7108 66.7299 89.9673 72.2035 97.3742 72.2035H104.478C111.885 72.2035 118.142 66.7299 119.111 59.378C119.555 52.2847 120.002 45.2199 120.331 38.1303C120.291 35.242 118.014 32.8587 115.138 32.7375H109.866C106.271 32.7375 103.015 30.6168 101.537 27.3044C101.158 26.3551 100.239 25.729 99.2205 25.729H94.4272C87.4769 25.729 81.8447 31.4247 81.8447 38.4534C81.8447 45.4602 82.2824 52.3536 82.742 59.378Z" fill="url(#paint15_radial_222_2776)"/>
<path d="M82.742 59.378C83.7108 66.7299 89.9673 72.2035 97.3742 72.2035H104.478C111.885 72.2035 118.142 66.7299 119.111 59.378C119.555 52.2847 120.002 45.2199 120.331 38.1303C120.291 35.242 118.014 32.8587 115.138 32.7375H109.866C106.271 32.7375 103.015 30.6168 101.537 27.3044C101.158 26.3551 100.239 25.729 99.2205 25.729H94.4272C87.4769 25.729 81.8447 31.4247 81.8447 38.4534C81.8447 45.4602 82.2824 52.3536 82.742 59.378Z" fill="url(#paint16_radial_222_2776)"/>
<path d="M82.742 59.378C83.7108 66.7299 89.9673 72.2035 97.3742 72.2035H104.478C111.885 72.2035 118.142 66.7299 119.111 59.378C119.555 52.2847 120.002 45.2199 120.331 38.1303C120.291 35.242 118.014 32.8587 115.138 32.7375H109.866C106.271 32.7375 103.015 30.6168 101.537 27.3044C101.158 26.3551 100.239 25.729 99.2205 25.729H94.4272C87.4769 25.729 81.8447 31.4247 81.8447 38.4534C81.8447 45.4602 82.2824 52.3536 82.742 59.378Z" fill="url(#paint17_radial_222_2776)"/>
<path d="M82.742 59.378C83.7108 66.7299 89.9673 72.2035 97.3742 72.2035H104.478C111.885 72.2035 118.142 66.7299 119.111 59.378C119.555 52.2847 120.002 45.2199 120.331 38.1303C120.291 35.242 118.014 32.8587 115.138 32.7375H109.866C106.271 32.7375 103.015 30.6168 101.537 27.3044C101.158 26.3551 100.239 25.729 99.2205 25.729H94.4272C87.4769 25.729 81.8447 31.4247 81.8447 38.4534C81.8447 45.4602 82.2824 52.3536 82.742 59.378Z" fill="url(#paint18_radial_222_2776)"/>
<g filter="url(#filter1_f_222_2776)">
<path d="M99.0794 47.0118L96.6892 53.9322C96.2809 55.3557 97.2608 56.7792 98.649 56.7792H101.609C102.997 56.7792 103.977 55.3338 103.569 53.9322L101.568 47.0118C101.14 45.4788 99.5286 45.4788 99.0794 47.0118Z" fill="#EE9020"/>
</g>
<g filter="url(#filter2_f_222_2776)">
<path d="M99.4701 46.2745L97.4694 53.1949C97.0611 54.6184 98.0411 56.0419 99.4293 56.0419H102.39C103.778 56.0419 104.758 54.5965 104.349 53.1949L102.349 46.2745C101.92 44.7415 99.9193 44.7415 99.4701 46.2745Z" fill="url(#paint19_linear_222_2776)"/>
<path d="M99.4701 46.2745L97.4694 53.1949C97.0611 54.6184 98.0411 56.0419 99.4293 56.0419H102.39C103.778 56.0419 104.758 54.5965 104.349 53.1949L102.349 46.2745C101.92 44.7415 99.9193 44.7415 99.4701 46.2745Z" fill="url(#paint20_linear_222_2776)"/>
<path d="M99.4701 46.2745L97.4694 53.1949C97.0611 54.6184 98.0411 56.0419 99.4293 56.0419H102.39C103.778 56.0419 104.758 54.5965 104.349 53.1949L102.349 46.2745C101.92 44.7415 99.9193 44.7415 99.4701 46.2745Z" fill="url(#paint21_linear_222_2776)"/>
<path d="M99.4701 46.2745L97.4694 53.1949C97.0611 54.6184 98.0411 56.0419 99.4293 56.0419H102.39C103.778 56.0419 104.758 54.5965 104.349 53.1949L102.349 46.2745C101.92 44.7415 99.9193 44.7415 99.4701 46.2745Z" fill="url(#paint22_linear_222_2776)"/>
</g>
<g filter="url(#filter3_f_222_2776)">
<path d="M95.7284 58.5704L95.7284 58.5704L95.7277 58.57C95.4364 58.4219 95.1336 58.5129 94.9514 58.7047C94.7688 58.8969 94.701 59.1979 94.8863 59.4659C96.1611 61.3973 98.3818 62.6846 100.911 62.6846C103.44 62.6846 105.661 61.3971 106.936 59.4654C107.12 59.1891 107.054 58.8882 106.87 58.6973C106.687 58.5073 106.384 58.4224 106.094 58.57L106.093 58.5704C104.595 59.3517 102.829 59.7987 100.911 59.7987C99.0114 59.7987 97.227 59.3516 95.7284 58.5704Z" stroke="url(#paint23_radial_222_2776)" stroke-width="0.15"/>
</g>
<path d="M100.911 59.8737C98.9998 59.8737 97.2034 59.4239 95.6937 58.6369C95.1778 58.3745 94.6236 58.9554 94.9484 59.4239C96.2097 61.3353 98.4074 62.6096 100.911 62.6096C103.414 62.6096 105.612 61.3353 106.873 59.4239C107.198 58.9367 106.644 58.3745 106.128 58.6369C104.618 59.4239 102.841 59.8737 100.911 59.8737Z" fill="url(#paint24_radial_222_2776)"/>
<g filter="url(#filter4_ii_222_2776)">
<path d="M119.193 23.9516C121.13 24.6181 122.867 25.9713 123.966 27.9103C125.723 31.0005 125.464 34.6966 123.566 37.4233C122.907 38.3928 122.548 39.5441 122.548 40.7155V45.1893C121.843 44.6986 120.914 44.3348 120.035 44.1794L120.331 38.1302C120.291 35.242 118.014 32.8587 115.138 32.7375H109.866C106.271 32.7375 103.015 30.6168 101.537 27.3044C101.158 26.3551 100.239 25.729 99.2203 25.729H94.427C87.4767 25.729 81.8445 31.4247 81.8445 38.4534L81.9599 44.2425C81.0035 44.383 80.0045 44.7027 79.2482 45.2354V40.7155C79.2482 39.5441 78.8887 38.3928 78.2296 37.4233C76.4321 34.7774 76.1125 31.2227 77.6903 28.2132C78.7888 26.1329 80.5663 24.6787 82.5835 23.9718C84.7405 23.2043 86.5779 21.75 87.7963 19.7909C89.3541 17.3066 92.0903 16.2949 95.2259 16.2949C96.4442 16.2949 97.6026 16.5575 98.6811 17.0018C100.119 17.628 101.737 17.628 103.175 17.0018C104.233 16.5575 105.392 16.2949 106.61 16.2949C109.786 16.2949 112.562 17.3672 114.1 19.9121C115.258 21.8308 117.075 23.2245 119.193 23.9516Z" fill="url(#paint25_linear_222_2776)"/>
<path d="M119.193 23.9516C121.13 24.6181 122.867 25.9713 123.966 27.9103C125.723 31.0005 125.464 34.6966 123.566 37.4233C122.907 38.3928 122.548 39.5441 122.548 40.7155V45.1893C121.843 44.6986 120.914 44.3348 120.035 44.1794L120.331 38.1302C120.291 35.242 118.014 32.8587 115.138 32.7375H109.866C106.271 32.7375 103.015 30.6168 101.537 27.3044C101.158 26.3551 100.239 25.729 99.2203 25.729H94.427C87.4767 25.729 81.8445 31.4247 81.8445 38.4534L81.9599 44.2425C81.0035 44.383 80.0045 44.7027 79.2482 45.2354V40.7155C79.2482 39.5441 78.8887 38.3928 78.2296 37.4233C76.4321 34.7774 76.1125 31.2227 77.6903 28.2132C78.7888 26.1329 80.5663 24.6787 82.5835 23.9718C84.7405 23.2043 86.5779 21.75 87.7963 19.7909C89.3541 17.3066 92.0903 16.2949 95.2259 16.2949C96.4442 16.2949 97.6026 16.5575 98.6811 17.0018C100.119 17.628 101.737 17.628 103.175 17.0018C104.233 16.5575 105.392 16.2949 106.61 16.2949C109.786 16.2949 112.562 17.3672 114.1 19.9121C115.258 21.8308 117.075 23.2245 119.193 23.9516Z" fill="url(#paint26_radial_222_2776)"/>
<path d="M119.193 23.9516C121.13 24.6181 122.867 25.9713 123.966 27.9103C125.723 31.0005 125.464 34.6966 123.566 37.4233C122.907 38.3928 122.548 39.5441 122.548 40.7155V45.1893C121.843 44.6986 120.914 44.3348 120.035 44.1794L120.331 38.1302C120.291 35.242 118.014 32.8587 115.138 32.7375H109.866C106.271 32.7375 103.015 30.6168 101.537 27.3044C101.158 26.3551 100.239 25.729 99.2203 25.729H94.427C87.4767 25.729 81.8445 31.4247 81.8445 38.4534L81.9599 44.2425C81.0035 44.383 80.0045 44.7027 79.2482 45.2354V40.7155C79.2482 39.5441 78.8887 38.3928 78.2296 37.4233C76.4321 34.7774 76.1125 31.2227 77.6903 28.2132C78.7888 26.1329 80.5663 24.6787 82.5835 23.9718C84.7405 23.2043 86.5779 21.75 87.7963 19.7909C89.3541 17.3066 92.0903 16.2949 95.2259 16.2949C96.4442 16.2949 97.6026 16.5575 98.6811 17.0018C100.119 17.628 101.737 17.628 103.175 17.0018C104.233 16.5575 105.392 16.2949 106.61 16.2949C109.786 16.2949 112.562 17.3672 114.1 19.9121C115.258 21.8308 117.075 23.2245 119.193 23.9516Z" fill="url(#paint27_radial_222_2776)"/>
<path d="M119.193 23.9516C121.13 24.6181 122.867 25.9713 123.966 27.9103C125.723 31.0005 125.464 34.6966 123.566 37.4233C122.907 38.3928 122.548 39.5441 122.548 40.7155V45.1893C121.843 44.6986 120.914 44.3348 120.035 44.1794L120.331 38.1302C120.291 35.242 118.014 32.8587 115.138 32.7375H109.866C106.271 32.7375 103.015 30.6168 101.537 27.3044C101.158 26.3551 100.239 25.729 99.2203 25.729H94.427C87.4767 25.729 81.8445 31.4247 81.8445 38.4534L81.9599 44.2425C81.0035 44.383 80.0045 44.7027 79.2482 45.2354V40.7155C79.2482 39.5441 78.8887 38.3928 78.2296 37.4233C76.4321 34.7774 76.1125 31.2227 77.6903 28.2132C78.7888 26.1329 80.5663 24.6787 82.5835 23.9718C84.7405 23.2043 86.5779 21.75 87.7963 19.7909C89.3541 17.3066 92.0903 16.2949 95.2259 16.2949C96.4442 16.2949 97.6026 16.5575 98.6811 17.0018C100.119 17.628 101.737 17.628 103.175 17.0018C104.233 16.5575 105.392 16.2949 106.61 16.2949C109.786 16.2949 112.562 17.3672 114.1 19.9121C115.258 21.8308 117.075 23.2245 119.193 23.9516Z" fill="url(#paint28_radial_222_2776)"/>
<path d="M119.193 23.9516C121.13 24.6181 122.867 25.9713 123.966 27.9103C125.723 31.0005 125.464 34.6966 123.566 37.4233C122.907 38.3928 122.548 39.5441 122.548 40.7155V45.1893C121.843 44.6986 120.914 44.3348 120.035 44.1794L120.331 38.1302C120.291 35.242 118.014 32.8587 115.138 32.7375H109.866C106.271 32.7375 103.015 30.6168 101.537 27.3044C101.158 26.3551 100.239 25.729 99.2203 25.729H94.427C87.4767 25.729 81.8445 31.4247 81.8445 38.4534L81.9599 44.2425C81.0035 44.383 80.0045 44.7027 79.2482 45.2354V40.7155C79.2482 39.5441 78.8887 38.3928 78.2296 37.4233C76.4321 34.7774 76.1125 31.2227 77.6903 28.2132C78.7888 26.1329 80.5663 24.6787 82.5835 23.9718C84.7405 23.2043 86.5779 21.75 87.7963 19.7909C89.3541 17.3066 92.0903 16.2949 95.2259 16.2949C96.4442 16.2949 97.6026 16.5575 98.6811 17.0018C100.119 17.628 101.737 17.628 103.175 17.0018C104.233 16.5575 105.392 16.2949 106.61 16.2949C109.786 16.2949 112.562 17.3672 114.1 19.9121C115.258 21.8308 117.075 23.2245 119.193 23.9516Z" fill="url(#paint29_radial_222_2776)"/>
</g>
<g filter="url(#filter5_i_222_2776)">
<path d="M114.965 37.7451C114.306 37.1707 113.539 36.5621 112.377 36.1964C111.232 35.8358 109.797 35.739 107.813 35.9818C107.241 36.0518 106.833 36.5725 106.903 37.1448C106.973 37.7171 107.494 38.1243 108.066 38.0543C109.878 37.8327 110.987 37.9478 111.75 38.188C112.497 38.4229 113.002 38.8037 113.594 39.3196C114.029 39.6983 114.688 39.6528 115.067 39.218C115.446 38.7832 115.4 38.1238 114.965 37.7451Z" fill="#C05029"/>
</g>
<g filter="url(#filter6_i_222_2776)">
<path d="M88.0663 37.3346C88.4055 37.1315 88.8937 36.8717 89.5101 36.6294C90.7428 36.1447 92.5044 35.7238 94.6124 35.9817C95.1847 36.0517 95.5919 36.5724 95.5218 37.1447C95.4518 37.717 94.9311 38.1242 94.3588 38.0542C92.6708 37.8477 91.2625 38.1839 90.2741 38.5725C89.78 38.7668 89.3949 38.9727 89.1386 39.1261C89.0106 39.2027 88.9155 39.2657 88.8559 39.307C88.826 39.3276 88.8051 39.3427 88.7934 39.3513L88.7831 39.359C88.3281 39.7098 87.6746 39.6271 87.3215 39.1732C86.9675 38.7181 87.0495 38.0622 87.5046 37.7082L88.0663 37.3346Z" fill="#C05029"/>
</g>
<g filter="url(#filter7_f_222_2776)">
<path d="M101.786 27.8195C101.699 27.6512 101.615 27.4795 101.537 27.3043C101.158 26.3551 100.239 25.7289 99.2205 25.7289H94.4272C87.4769 25.7289 81.8447 31.4246 81.8447 38.4534V39.4895C80.5644 38.5152 78.9541 36.4599 78.9541 33.1339C78.9541 29.0977 81.8978 27.0576 83.7756 25.7562C84.3057 25.3888 84.7509 25.0803 85.0208 24.8024C85.1355 24.6843 85.2604 24.5519 85.3962 24.4079C86.7124 23.0118 89.0576 20.5245 93.1528 19.4374C96.2114 18.6255 99.3316 18.7508 101.066 18.9871C101.535 19.0509 101.866 19.4603 101.866 19.9331V27.7689L101.786 27.8195Z" fill="url(#paint30_radial_222_2776)"/>
<path d="M101.786 27.8195C101.699 27.6512 101.615 27.4795 101.537 27.3043C101.158 26.3551 100.239 25.7289 99.2205 25.7289H94.4272C87.4769 25.7289 81.8447 31.4246 81.8447 38.4534V39.4895C80.5644 38.5152 78.9541 36.4599 78.9541 33.1339C78.9541 29.0977 81.8978 27.0576 83.7756 25.7562C84.3057 25.3888 84.7509 25.0803 85.0208 24.8024C85.1355 24.6843 85.2604 24.5519 85.3962 24.4079C86.7124 23.0118 89.0576 20.5245 93.1528 19.4374C96.2114 18.6255 99.3316 18.7508 101.066 18.9871C101.535 19.0509 101.866 19.4603 101.866 19.9331V27.7689L101.786 27.8195Z" fill="url(#paint31_radial_222_2776)"/>
</g>
<g filter="url(#filter8_f_222_2776)">
<path d="M120.54 40.518L120.43 38.1412C120.39 35.2663 118.015 32.894 115.139 32.7733H109.866C106.519 32.7733 103.466 30.9434 101.868 28.0299C101.868 28.0299 100.73 25.3943 100.914 21.8417C100.965 20.84 101.855 20.1279 102.854 20.2213C107.004 20.609 113.992 21.8833 118.579 24.8749C125.148 29.1596 123.998 36.8817 120.54 40.518Z" fill="url(#paint32_radial_222_2776)"/>
<path d="M120.54 40.518L120.43 38.1412C120.39 35.2663 118.015 32.894 115.139 32.7733H109.866C106.519 32.7733 103.466 30.9434 101.868 28.0299C101.868 28.0299 100.73 25.3943 100.914 21.8417C100.965 20.84 101.855 20.1279 102.854 20.2213C107.004 20.609 113.992 21.8833 118.579 24.8749C125.148 29.1596 123.998 36.8817 120.54 40.518Z" fill="url(#paint33_radial_222_2776)"/>
<path d="M120.54 40.518L120.43 38.1412C120.39 35.2663 118.015 32.894 115.139 32.7733H109.866C106.519 32.7733 103.466 30.9434 101.868 28.0299C101.868 28.0299 100.73 25.3943 100.914 21.8417C100.965 20.84 101.855 20.1279 102.854 20.2213C107.004 20.609 113.992 21.8833 118.579 24.8749C125.148 29.1596 123.998 36.8817 120.54 40.518Z" fill="url(#paint34_radial_222_2776)"/>
<path d="M120.54 40.518L120.43 38.1412C120.39 35.2663 118.015 32.894 115.139 32.7733H109.866C106.519 32.7733 103.466 30.9434 101.868 28.0299C101.868 28.0299 100.73 25.3943 100.914 21.8417C100.965 20.84 101.855 20.1279 102.854 20.2213C107.004 20.609 113.992 21.8833 118.579 24.8749C125.148 29.1596 123.998 36.8817 120.54 40.518Z" fill="url(#paint35_radial_222_2776)"/>
<path d="M120.54 40.518L120.43 38.1412C120.39 35.2663 118.015 32.894 115.139 32.7733H109.866C106.519 32.7733 103.466 30.9434 101.868 28.0299C101.868 28.0299 100.73 25.3943 100.914 21.8417C100.965 20.84 101.855 20.1279 102.854 20.2213C107.004 20.609 113.992 21.8833 118.579 24.8749C125.148 29.1596 123.998 36.8817 120.54 40.518Z" fill="url(#paint36_radial_222_2776)"/>
</g>
<path d="M109.913 42.6963C112.372 42.6963 114.449 44.3914 115.014 46.682C115.182 47.3386 114.678 47.9647 114.006 47.9647H105.607C105.073 47.9647 104.645 47.4761 104.752 46.9416C105.225 44.5288 107.348 42.6963 109.913 42.6963Z" fill="white"/>
<path d="M109.134 43.7197C110.997 43.7197 112.493 45.2315 112.493 47.0793C112.493 47.3847 112.447 47.6901 112.371 47.965H105.881C105.805 47.6749 105.759 47.3847 105.759 47.0793C105.759 45.2315 107.271 43.7197 109.134 43.7197Z" fill="url(#paint37_radial_222_2776)"/>
<path d="M107.21 47.0786C107.21 46.0104 108.065 45.1558 109.133 45.1558C110.201 45.1558 111.056 46.0104 111.056 47.0786C111.056 47.3991 110.979 47.7043 110.842 47.9637H107.439C107.286 47.7043 107.21 47.3991 107.21 47.0786Z" fill="black"/>
<g filter="url(#filter9_f_222_2776)">
<path d="M108.884 44.4317C109.123 44.7514 108.623 45.1412 108.055 45.5661C107.487 45.9909 107.066 46.2898 106.826 45.9701C106.587 45.6503 106.854 45.0467 107.422 44.6219C107.991 44.1971 108.645 44.1119 108.884 44.4317Z" fill="#C7A7A3"/>
<path d="M108.884 44.4317C109.123 44.7514 108.623 45.1412 108.055 45.5661C107.487 45.9909 107.066 46.2898 106.826 45.9701C106.587 45.6503 106.854 45.0467 107.422 44.6219C107.991 44.1971 108.645 44.1119 108.884 44.4317Z" fill="url(#paint38_radial_222_2776)"/>
</g>
<g filter="url(#filter10_f_222_2776)">
<path d="M112.123 46.6335C112 45.7669 111.493 45.1137 111.254 44.8955L110.278 45.9669L110.719 46.824L112.123 46.6335Z" fill="url(#paint39_linear_222_2776)"/>
</g>
<path d="M91.9057 42.696C89.447 42.696 87.3701 44.3912 86.805 46.6819C86.637 47.3386 87.141 47.9648 87.8129 47.9648H96.2123C96.7469 47.9648 97.1745 47.4761 97.0676 46.9416C96.5941 44.5286 94.4561 42.696 91.9057 42.696Z" fill="white"/>
<path d="M92.685 43.7195C90.8218 43.7195 89.3252 45.2314 89.3252 47.0792C89.3252 47.3847 89.371 47.6901 89.4474 47.965H95.9378C96.0142 47.6748 96.06 47.3847 96.06 47.0792C96.0447 45.2314 94.5481 43.7195 92.685 43.7195Z" fill="url(#paint40_radial_222_2776)"/>
<path d="M94.6067 47.0785C94.6067 46.0102 93.752 45.1555 92.6837 45.1555C91.6154 45.1555 90.7607 46.0102 90.7607 47.0785C90.7607 47.399 90.837 47.7042 90.9744 47.9636H94.3777C94.5151 47.7042 94.6067 47.399 94.6067 47.0785Z" fill="black"/>
<g filter="url(#filter11_f_222_2776)">
<path d="M95.7512 46.6805C95.7512 45.5972 94.8702 44.875 94.6321 44.6567L93.5488 45.7043L94.2155 47.0615L95.7512 46.6805Z" fill="url(#paint41_linear_222_2776)"/>
</g>
<g filter="url(#filter12_f_222_2776)">
<ellipse cx="91.67" cy="45.1556" rx="1.46499" ry="0.741418" transform="rotate(-27.914 91.67 45.1556)" fill="#C7A7A3" fill-opacity="0.9"/>
<ellipse cx="91.67" cy="45.1556" rx="1.46499" ry="0.741418" transform="rotate(-27.914 91.67 45.1556)" fill="url(#paint42_radial_222_2776)"/>
</g>
<path d="M119.446 54.0161C119.694 50.0087 119.933 46.0061 120.141 41.9988C122.987 42.4966 125.149 44.9793 125.149 47.9671C125.149 51.1939 122.627 53.8316 119.446 54.0161Z" fill="url(#paint43_linear_222_2776)"/>
<path d="M119.446 54.0161C119.694 50.0087 119.933 46.0061 120.141 41.9988C122.987 42.4966 125.149 44.9793 125.149 47.9671C125.149 51.1939 122.627 53.8316 119.446 54.0161Z" fill="url(#paint44_radial_222_2776)"/>
<path d="M119.446 54.0161C119.694 50.0087 119.933 46.0061 120.141 41.9988C122.987 42.4966 125.149 44.9793 125.149 47.9671C125.149 51.1939 122.627 53.8316 119.446 54.0161Z" fill="url(#paint45_radial_222_2776)"/>
<path d="M81.8794 41.968C78.9372 42.3829 76.6738 44.9109 76.6738 47.9676C76.6738 51.2026 79.2089 53.8454 82.4008 54.0179C82.1577 49.9941 81.9573 45.9931 81.8794 41.968Z" fill="url(#paint46_linear_222_2776)"/>
<path d="M81.8794 41.968C78.9372 42.3829 76.6738 44.9109 76.6738 47.9676C76.6738 51.2026 79.2089 53.8454 82.4008 54.0179C82.1577 49.9941 81.9573 45.9931 81.8794 41.968Z" fill="url(#paint47_radial_222_2776)"/>
<g filter="url(#filter13_f_222_2776)">
<path d="M81.9401 44.4556C80.3339 44.8157 79.1338 46.2502 79.1338 47.965C79.1338 49.7899 80.4929 51.2973 82.2541 51.5303C82.1237 49.1707 82.0136 46.8156 81.9401 44.4556Z" fill="#DD8224"/>
</g>
<g filter="url(#filter14_f_222_2776)">
<path d="M119.597 51.5616C119.742 49.1729 119.882 46.7852 120.013 44.3965C121.787 44.6178 123.16 46.1312 123.16 47.9652C123.16 49.9403 121.568 51.5436 119.597 51.5616Z" fill="#FFC837"/>
</g>
<g filter="url(#filter15_f_222_2776)">
<path d="M88.208 38.3879C89.1755 37.6939 91.5869 36.473 94.4388 36.9525" stroke="#C96953" stroke-width="0.25" stroke-linecap="round"/>
</g>
<g filter="url(#filter16_f_222_2776)">
<path d="M114.323 38.2165C113.356 37.5225 110.944 36.3016 108.092 36.7811" stroke="#C96953" stroke-width="0.25" stroke-linecap="round"/>
</g>
<path d="M133.837 52.3256V19.0898H130.837V52.3256H133.837Z" fill="url(#paint48_linear_222_2776)"/>
<path d="M133.837 52.3256V19.0898H130.837V52.3256H133.837Z" fill="url(#paint49_radial_222_2776)"/>
<path d="M77.7119 28.248L82.4141 20.7773L118.977 20.3672L124.074 28.1016C106.584 34.1367 85.5488 31.002 77.7119 28.248Z" fill="url(#paint50_radial_222_2776)"/>
<path d="M130.874 22.0898H70.9863C69.3363 22.0898 67.9863 20.7398 67.9863 19.0898C67.9863 17.4398 69.3363 16.0898 70.9863 16.0898H130.836C132.486 16.0898 133.836 17.4398 133.836 19.0898C133.874 20.7398 132.524 22.0898 130.874 22.0898Z" fill="url(#paint51_linear_222_2776)"/>
<path d="M130.874 22.0898H70.9863C69.3363 22.0898 67.9863 20.7398 67.9863 19.0898C67.9863 17.4398 69.3363 16.0898 70.9863 16.0898H130.836C132.486 16.0898 133.836 17.4398 133.836 19.0898C133.874 20.7398 132.524 22.0898 130.874 22.0898Z" fill="url(#paint52_radial_222_2776)"/>
<path d="M130.874 22.0898H70.9863C69.3363 22.0898 67.9863 20.7398 67.9863 19.0898C67.9863 17.4398 69.3363 16.0898 70.9863 16.0898H130.836C132.486 16.0898 133.836 17.4398 133.836 19.0898C133.874 20.7398 132.524 22.0898 130.874 22.0898Z" fill="url(#paint53_radial_222_2776)"/>
<path d="M130.834 52.2363C129.858 52.769 129.195 53.805 129.195 54.9957C129.195 56.7305 130.602 58.1368 132.336 58.1368C134.071 58.1368 135.477 56.7305 135.477 54.9957C135.477 53.805 134.815 52.769 133.838 52.2363H130.834Z" fill="url(#paint54_radial_222_2776)"/>
<path d="M130.834 52.2363C129.858 52.769 129.195 53.805 129.195 54.9957C129.195 56.7305 130.602 58.1368 132.336 58.1368C134.071 58.1368 135.477 56.7305 135.477 54.9957C135.477 53.805 134.815 52.769 133.838 52.2363H130.834Z" fill="url(#paint55_radial_222_2776)"/>
<g filter="url(#filter17_f_222_2776)">
<path d="M132.723 22.478V51.6063" stroke="url(#paint56_linear_222_2776)" stroke-width="0.15"/>
</g>
<path d="M129.136 59.5903L127.199 67.9848C126.953 69.0512 127.772 70.066 128.866 70.0515H135.853C136.938 70.0371 137.728 69.0168 137.469 67.9626L135.435 59.5656C135.23 58.7267 134.478 58.1367 133.614 58.1367H130.963C130.089 58.1367 129.332 58.7394 129.136 59.5903Z" fill="url(#paint57_linear_222_2776)"/>
<path d="M129.136 59.5903L127.199 67.9848C126.953 69.0512 127.772 70.066 128.866 70.0515H135.853C136.938 70.0371 137.728 69.0168 137.469 67.9626L135.435 59.5656C135.23 58.7267 134.478 58.1367 133.614 58.1367H130.963C130.089 58.1367 129.332 58.7394 129.136 59.5903Z" fill="url(#paint58_radial_222_2776)"/>
<path d="M129.136 59.5903L127.199 67.9848C126.953 69.0512 127.772 70.066 128.866 70.0515H135.853C136.938 70.0371 137.728 69.0168 137.469 67.9626L135.435 59.5656C135.23 58.7267 134.478 58.1367 133.614 58.1367H130.963C130.089 58.1367 129.332 58.7394 129.136 59.5903Z" fill="url(#paint59_radial_222_2776)"/>
<path d="M129.136 59.5903L127.199 67.9848C126.953 69.0512 127.772 70.066 128.866 70.0515H135.853C136.938 70.0371 137.728 69.0168 137.469 67.9626L135.435 59.5656C135.23 58.7267 134.478 58.1367 133.614 58.1367H130.963C130.089 58.1367 129.332 58.7394 129.136 59.5903Z" fill="url(#paint60_radial_222_2776)"/>
<path d="M73.9769 121.052V76.8538C65.3255 84.4123 59.8564 95.5263 59.8564 107.927V121.052H73.9769Z" fill="url(#paint61_radial_222_2776)"/>
<path d="M73.9769 121.052V76.8538C65.3255 84.4123 59.8564 95.5263 59.8564 107.927V121.052H73.9769Z" fill="url(#paint62_radial_222_2776)"/>
<path d="M73.9769 121.052V76.8538C65.3255 84.4123 59.8564 95.5263 59.8564 107.927V121.052H73.9769Z" fill="url(#paint63_linear_222_2776)"/>
<path d="M128.198 121.052V76.8538C136.849 84.4123 142.318 95.5263 142.318 107.927V121.052H128.198Z" fill="url(#paint64_radial_222_2776)"/>
<path d="M128.198 121.052V76.8538C136.849 84.4123 142.318 95.5263 142.318 107.927V121.052H128.198Z" fill="url(#paint65_radial_222_2776)"/>
<g filter="url(#filter18_f_222_2776)">
<path d="M84.8428 97.7135C84.8428 97.0083 85.4232 96.4365 86.1392 96.4365C86.8551 96.4365 87.4355 97.0083 87.4355 97.7135V120.562H84.8428V97.7135Z" fill="url(#paint66_linear_222_2776)"/>
<path d="M99.7915 97.7135C99.7915 97.0083 100.372 96.4365 101.088 96.4365C101.804 96.4365 102.384 97.0083 102.384 97.7135V120.562H99.7915V97.7135Z" fill="url(#paint67_linear_222_2776)"/>
<path d="M114.74 97.7135C114.74 97.0083 115.321 96.4365 116.037 96.4365C116.753 96.4365 117.333 97.0083 117.333 97.7135V120.562H114.74V97.7135Z" fill="url(#paint68_linear_222_2776)"/>
</g>
<defs>
<filter id="filter0_ii_222_2776" x="81.8447" y="25.729" width="38.9863" height="46.6744" filterUnits="userSpaceOnUse" color-interpolation-filters="sRGB">
<feFlood flood-opacity="0" result="BackgroundImageFix"/>
<feBlend mode="normal" in="SourceGraphic" in2="BackgroundImageFix" result="shape"/>
<feColorMatrix in="SourceAlpha" type="matrix" values="0 0 0 0 0 0 0 0 0 0 0 0 0 0 0 0 0 0 127 0" result="hardAlpha"/>
<feOffset dx="0.5"/>
<feGaussianBlur stdDeviation="0.5"/>
<feComposite in2="hardAlpha" operator="arithmetic" k2="-1" k3="1"/>
<feColorMatrix type="matrix" values="0 0 0 0 0.823529 0 0 0 0 0.623529 0 0 0 0 0.313726 0 0 0 1 0"/>
<feBlend mode="normal" in2="shape" result="effect1_innerShadow_222_2776"/>
<feColorMatrix in="SourceAlpha" type="matrix" values="0 0 0 0 0 0 0 0 0 0 0 0 0 0 0 0 0 0 127 0" result="hardAlpha"/>
<feOffset dy="0.2"/>
<feGaussianBlur stdDeviation="0.375"/>
<feComposite in2="hardAlpha" operator="arithmetic" k2="-1" k3="1"/>
<feColorMatrix type="matrix" values="0 0 0 0 0.980392 0 0 0 0 0.54902 0 0 0 0 0.0941176 0 0 0 1 0"/>
<feBlend mode="normal" in2="effect1_innerShadow_222_2776" result="effect2_innerShadow_222_2776"/>
</filter>
<filter id="filter1_f_222_2776" x="95.5957" y="44.8621" width="9.06641" height="12.917" filterUnits="userSpaceOnUse" color-interpolation-filters="sRGB">
<feFlood flood-opacity="0" result="BackgroundImageFix"/>
<feBlend mode="normal" in="SourceGraphic" in2="BackgroundImageFix" result="shape"/>
<feGaussianBlur stdDeviation="0.5" result="effect1_foregroundBlur_222_2776"/>
</filter>
<filter id="filter2_f_222_2776" x="97.276" y="45.0248" width="7.26641" height="11.117" filterUnits="userSpaceOnUse" color-interpolation-filters="sRGB">
<feFlood flood-opacity="0" result="BackgroundImageFix"/>
<feBlend mode="normal" in="SourceGraphic" in2="BackgroundImageFix" result="shape"/>
<feGaussianBlur stdDeviation="0.05" result="effect1_foregroundBlur_222_2776"/>
</filter>
<filter id="filter3_f_222_2776" x="94.6012" y="58.3199" width="12.6189" height="4.5396" filterUnits="userSpaceOnUse" color-interpolation-filters="sRGB">
<feFlood flood-opacity="0" result="BackgroundImageFix"/>
<feBlend mode="normal" in="SourceGraphic" in2="BackgroundImageFix" result="shape"/>
<feGaussianBlur stdDeviation="0.05" result="effect1_foregroundBlur_222_2776"/>
</filter>
<filter id="filter4_ii_222_2776" x="76.6738" y="15.7949" width="48.4736" height="29.4404" filterUnits="userSpaceOnUse" color-interpolation-filters="sRGB">
<feFlood flood-opacity="0" result="BackgroundImageFix"/>
<feBlend mode="normal" in="SourceGraphic" in2="BackgroundImageFix" result="shape"/>
<feColorMatrix in="SourceAlpha" type="matrix" values="0 0 0 0 0 0 0 0 0 0 0 0 0 0 0 0 0 0 127 0" result="hardAlpha"/>
<feOffset dy="-0.5"/>
<feGaussianBlur stdDeviation="0.625"/>
<feComposite in2="hardAlpha" operator="arithmetic" k2="-1" k3="1"/>
<feColorMatrix type="matrix" values="0 0 0 0 0.945098 0 0 0 0 0.509804 0 0 0 0 0.0627451 0 0 0 1 0"/>
<feBlend mode="normal" in2="shape" result="effect1_innerShadow_222_2776"/>
<feColorMatrix in="SourceAlpha" type="matrix" values="0 0 0 0 0 0 0 0 0 0 0 0 0 0 0 0 0 0 127 0" result="hardAlpha"/>
<feOffset dy="-0.2"/>
<feGaussianBlur stdDeviation="0.2"/>
<feComposite in2="hardAlpha" operator="arithmetic" k2="-1" k3="1"/>
<feColorMatrix type="matrix" values="0 0 0 0 0.862745 0 0 0 0 0.486275 0 0 0 0 0.0470588 0 0 0 1 0"/>
<feBlend mode="normal" in2="effect1_innerShadow_222_2776" result="effect2_innerShadow_222_2776"/>
</filter>
<filter id="filter5_i_222_2776" x="106.896" y="35.6479" width="8.52773" height="3.92852" filterUnits="userSpaceOnUse" color-interpolation-filters="sRGB">
<feFlood flood-opacity="0" result="BackgroundImageFix"/>
<feBlend mode="normal" in="SourceGraphic" in2="BackgroundImageFix" result="shape"/>
<feColorMatrix in="SourceAlpha" type="matrix" values="0 0 0 0 0 0 0 0 0 0 0 0 0 0 0 0 0 0 127 0" result="hardAlpha"/>
<feOffset dx="0.1" dy="-0.2"/>
<feGaussianBlur stdDeviation="0.125"/>
<feComposite in2="hardAlpha" operator="arithmetic" k2="-1" k3="1"/>
<feColorMatrix type="matrix" values="0 0 0 0 0.603922 0 0 0 0 0.243137 0 0 0 0 0.152941 0 0 0 1 0"/>
<feBlend mode="normal" in2="shape" result="effect1_innerShadow_222_2776"/>
</filter>
<filter id="filter6_i_222_2776" x="87.1016" y="35.7033" width="8.52773" height="3.87285" filterUnits="userSpaceOnUse" color-interpolation-filters="sRGB">
<feFlood flood-opacity="0" result="BackgroundImageFix"/>
<feBlend mode="normal" in="SourceGraphic" in2="BackgroundImageFix" result="shape"/>
<feColorMatrix in="SourceAlpha" type="matrix" values="0 0 0 0 0 0 0 0 0 0 0 0 0 0 0 0 0 0 127 0" result="hardAlpha"/>
<feOffset dx="0.1" dy="-0.2"/>
<feGaussianBlur stdDeviation="0.125"/>
<feComposite in2="hardAlpha" operator="arithmetic" k2="-1" k3="1"/>
<feColorMatrix type="matrix" values="0 0 0 0 0.603922 0 0 0 0 0.243137 0 0 0 0 0.152941 0 0 0 1 0"/>
<feBlend mode="normal" in2="shape" result="effect1_innerShadow_222_2776"/>
</filter>
<filter id="filter7_f_222_2776" x="78.7041" y="18.5593" width="23.4111" height="21.1802" filterUnits="userSpaceOnUse" color-interpolation-filters="sRGB">
<feFlood flood-opacity="0" result="BackgroundImageFix"/>
<feBlend mode="normal" in="SourceGraphic" in2="BackgroundImageFix" result="shape"/>
<feGaussianBlur stdDeviation="0.125" result="effect1_foregroundBlur_222_2776"/>
</filter>
<filter id="filter8_f_222_2776" x="100.644" y="19.9631" width="22.9326" height="20.8049" filterUnits="userSpaceOnUse" color-interpolation-filters="sRGB">
<feFlood flood-opacity="0" result="BackgroundImageFix"/>
<feBlend mode="normal" in="SourceGraphic" in2="BackgroundImageFix" result="shape"/>
<feGaussianBlur stdDeviation="0.125" result="effect1_foregroundBlur_222_2776"/>
</filter>
<filter id="filter9_f_222_2776" x="106.639" y="44.138" width="2.40605" height="2.06621" filterUnits="userSpaceOnUse" color-interpolation-filters="sRGB">
<feFlood flood-opacity="0" result="BackgroundImageFix"/>
<feBlend mode="normal" in="SourceGraphic" in2="BackgroundImageFix" result="shape"/>
<feGaussianBlur stdDeviation="0.05" result="effect1_foregroundBlur_222_2776"/>
</filter>
<filter id="filter10_f_222_2776" x="110.078" y="44.6955" width="2.24473" height="2.32847" filterUnits="userSpaceOnUse" color-interpolation-filters="sRGB">
<feFlood flood-opacity="0" result="BackgroundImageFix"/>
<feBlend mode="normal" in="SourceGraphic" in2="BackgroundImageFix" result="shape"/>
<feGaussianBlur stdDeviation="0.1" result="effect1_foregroundBlur_222_2776"/>
</filter>
<filter id="filter11_f_222_2776" x="93.3488" y="44.4567" width="2.60215" height="2.80479" filterUnits="userSpaceOnUse" color-interpolation-filters="sRGB">
<feFlood flood-opacity="0" result="BackgroundImageFix"/>
<feBlend mode="normal" in="SourceGraphic" in2="BackgroundImageFix" result="shape"/>
<feGaussianBlur stdDeviation="0.1" result="effect1_foregroundBlur_222_2776"/>
</filter>
<filter id="filter12_f_222_2776" x="90.2291" y="44.107" width="2.88164" height="2.09697" filterUnits="userSpaceOnUse" color-interpolation-filters="sRGB">
<feFlood flood-opacity="0" result="BackgroundImageFix"/>
<feBlend mode="normal" in="SourceGraphic" in2="BackgroundImageFix" result="shape"/>
<feGaussianBlur stdDeviation="0.05" result="effect1_foregroundBlur_222_2776"/>
</filter>
<filter id="filter13_f_222_2776" x="78.8838" y="44.2056" width="3.62012" height="7.57471" filterUnits="userSpaceOnUse" color-interpolation-filters="sRGB">
<feFlood flood-opacity="0" result="BackgroundImageFix"/>
<feBlend mode="normal" in="SourceGraphic" in2="BackgroundImageFix" result="shape"/>
<feGaussianBlur stdDeviation="0.125" result="effect1_foregroundBlur_222_2776"/>
</filter>
<filter id="filter14_f_222_2776" x="119.347" y="44.1465" width="4.06348" height="7.66504" filterUnits="userSpaceOnUse" color-interpolation-filters="sRGB">
<feFlood flood-opacity="0" result="BackgroundImageFix"/>
<feBlend mode="normal" in="SourceGraphic" in2="BackgroundImageFix" result="shape"/>
<feGaussianBlur stdDeviation="0.125" result="effect1_foregroundBlur_222_2776"/>
</filter>
<filter id="filter15_f_222_2776" x="87.833" y="36.4688" width="6.98047" height="2.29419" filterUnits="userSpaceOnUse" color-interpolation-filters="sRGB">
<feFlood flood-opacity="0" result="BackgroundImageFix"/>
<feBlend mode="normal" in="SourceGraphic" in2="BackgroundImageFix" result="shape"/>
<feGaussianBlur stdDeviation="0.125" result="effect1_foregroundBlur_222_2776"/>
</filter>
<filter id="filter16_f_222_2776" x="107.718" y="36.2974" width="6.98047" height="2.29419" filterUnits="userSpaceOnUse" color-interpolation-filters="sRGB">
<feFlood flood-opacity="0" result="BackgroundImageFix"/>
<feBlend mode="normal" in="SourceGraphic" in2="BackgroundImageFix" result="shape"/>
<feGaussianBlur stdDeviation="0.125" result="effect1_foregroundBlur_222_2776"/>
</filter>
<filter id="filter17_f_222_2776" x="132.397" y="22.228" width="0.650391" height="29.6284" filterUnits="userSpaceOnUse" color-interpolation-filters="sRGB">
<feFlood flood-opacity="0" result="BackgroundImageFix"/>
<feBlend mode="normal" in="SourceGraphic" in2="BackgroundImageFix" result="shape"/>
<feGaussianBlur stdDeviation="0.125" result="effect1_foregroundBlur_222_2776"/>
</filter>
<filter id="filter18_f_222_2776" x="84.6928" y="96.2865" width="32.7902" height="24.426" filterUnits="userSpaceOnUse" color-interpolation-filters="sRGB">
<feFlood flood-opacity="0" result="BackgroundImageFix"/>
<feBlend mode="normal" in="SourceGraphic" in2="BackgroundImageFix" result="shape"/>
<feGaussianBlur stdDeviation="0.075" result="effect1_foregroundBlur_222_2776"/>
</filter>
<radialGradient id="paint0_radial_222_2776" cx="0" cy="0" r="1" gradientUnits="userSpaceOnUse" gradientTransform="translate(128.469 95.2499) rotate(90) scale(40.7813 13.7109)">
<stop stop-color="#70647F"/>
<stop offset="1" stop-color="#70647F" stop-opacity="0"/>
</radialGradient>
<radialGradient id="paint1_radial_222_2776" cx="0" cy="0" r="1" gradientUnits="userSpaceOnUse" gradientTransform="translate(73.7425 89.039) scale(4.92188 26.4844)">
<stop stop-color="#5D516A"/>
<stop offset="1" stop-color="#5D516A" stop-opacity="0"/>
</radialGradient>
<radialGradient id="paint2_radial_222_2776" cx="0" cy="0" r="1" gradientUnits="userSpaceOnUse" gradientTransform="translate(101.117 88.6289) rotate(-90) scale(17.6953 51.1976)">
<stop stop-color="#47404D"/>
<stop offset="1" stop-color="#3B2D3A"/>
</radialGradient>
<radialGradient id="paint3_radial_222_2776" cx="0" cy="0" r="1" gradientUnits="userSpaceOnUse" gradientTransform="translate(101.088 71.9297) rotate(90) scale(22.2656 28.2827)">
<stop offset="0.931579" stop-color="#342542" stop-opacity="0"/>
<stop offset="0.994737" stop-color="#342542"/>
</radialGradient>
<radialGradient id="paint4_radial_222_2776" cx="0" cy="0" r="1" gradientUnits="userSpaceOnUse" gradientTransform="translate(99.5239 66.8906) rotate(145.631) scale(26.7266 36.8473)">
<stop offset="0.9281" stop-color="#6A656F" stop-opacity="0"/>
<stop offset="1" stop-color="#6A656F"/>
</radialGradient>
<radialGradient id="paint5_radial_222_2776" cx="0" cy="0" r="1" gradientUnits="userSpaceOnUse" gradientTransform="translate(98.5864 66.0117) rotate(34.2663) scale(30.6997 42.3248)">
<stop offset="0.933129" stop-color="#6A656F" stop-opacity="0"/>
<stop offset="1" stop-color="#615B67"/>
</radialGradient>
<radialGradient id="paint6_radial_222_2776" cx="0" cy="0" r="1" gradientUnits="userSpaceOnUse" gradientTransform="translate(101.088 97.125) rotate(-90) scale(37.7344 39.9201)">
<stop offset="0.506211" stop-color="#57525D" stop-opacity="0"/>
<stop offset="1" stop-color="#57525D"/>
</radialGradient>
<radialGradient id="paint7_radial_222_2776" cx="0" cy="0" r="1" gradientUnits="userSpaceOnUse" gradientTransform="translate(101.088 66.0117) rotate(90) scale(14.4727 18.9077)">
<stop offset="0.316364" stop-color="#361E27"/>
<stop offset="1" stop-color="#361E27" stop-opacity="0"/>
</radialGradient>
<radialGradient id="paint8_radial_222_2776" cx="0" cy="0" r="1" gradientUnits="userSpaceOnUse" gradientTransform="translate(121.804 52.5081) rotate(103.169) scale(14.414 17.1227)">
<stop offset="0.0431525" stop-color="#FFC135"/>
<stop offset="1" stop-color="#E26839"/>
</radialGradient>
<radialGradient id="paint9_radial_222_2776" cx="0" cy="0" r="1" gradientUnits="userSpaceOnUse" gradientTransform="translate(118.996 53.5176) rotate(53.9017) scale(1.87415 1.59213)">
<stop stop-color="#E18C2A"/>
<stop offset="1" stop-color="#E18C2A" stop-opacity="0"/>
</radialGradient>
<radialGradient id="paint10_radial_222_2776" cx="0" cy="0" r="1" gradientUnits="userSpaceOnUse" gradientTransform="translate(80.0185 52.9524) rotate(71.2338) scale(15.5989 7.0904)">
<stop stop-color="#D57A26"/>
<stop offset="1" stop-color="#D06A3C"/>
</radialGradient>
<radialGradient id="paint11_radial_222_2776" cx="0" cy="0" r="1" gradientUnits="userSpaceOnUse" gradientTransform="translate(82.5108 52.9209) rotate(72.2903) scale(3.94104 3.45711)">
<stop offset="0.263377" stop-color="#BE691E"/>
<stop offset="0.977292" stop-color="#BE691E" stop-opacity="0"/>
</radialGradient>
<radialGradient id="paint12_radial_222_2776" cx="0" cy="0" r="1" gradientUnits="userSpaceOnUse" gradientTransform="translate(106.321 77.4962) rotate(-135.444) scale(5.34489 11.2979)">
<stop stop-color="#D89D21"/>
<stop offset="1" stop-color="#CF7B39"/>
</radialGradient>
<radialGradient id="paint13_radial_222_2776" cx="0" cy="0" r="1" gradientUnits="userSpaceOnUse" gradientTransform="translate(111.484 48.9662) rotate(180) scale(19.6863 34.8248)">
<stop stop-color="#FFE846"/>
<stop offset="1" stop-color="#F5A129"/>
</radialGradient>
<radialGradient id="paint14_radial_222_2776" cx="0" cy="0" r="1" gradientUnits="userSpaceOnUse" gradientTransform="translate(102.922 39.4688) rotate(94.7148) scale(34.2173 39.2179)">
<stop offset="0.623188" stop-color="#FBA036" stop-opacity="0"/>
<stop offset="0.979213" stop-color="#C56B42"/>
</radialGradient>
<radialGradient id="paint15_radial_222_2776" cx="0" cy="0" r="1" gradientUnits="userSpaceOnUse" gradientTransform="translate(120.331 48.0939) rotate(93.7745) scale(23.0277 8.46592)">
<stop offset="0.389903" stop-color="#FFD930"/>
<stop offset="1" stop-color="#FFD930" stop-opacity="0"/>
</radialGradient>
<radialGradient id="paint16_radial_222_2776" cx="0" cy="0" r="1" gradientUnits="userSpaceOnUse" gradientTransform="translate(93.0354 44.5211) rotate(-90) scale(5.3241 6.40994)">
<stop offset="0.276316" stop-color="#F59632"/>
<stop offset="1" stop-color="#F59632" stop-opacity="0"/>
</radialGradient>
<radialGradient id="paint17_radial_222_2776" cx="0" cy="0" r="1" gradientUnits="userSpaceOnUse" gradientTransform="translate(110.282 42.9712) rotate(-90) scale(5.78119 7.49837)">
<stop offset="0.178218" stop-color="#FFBE3A"/>
<stop offset="1" stop-color="#FFBE3A" stop-opacity="0"/>
</radialGradient>
<radialGradient id="paint18_radial_222_2776" cx="0" cy="0" r="1" gradientUnits="userSpaceOnUse" gradientTransform="translate(98.5943 25.729) rotate(90) scale(9.30891 23.7995)">
<stop offset="0.633626" stop-color="#E28222"/>
<stop offset="1" stop-color="#E28222" stop-opacity="0"/>
</radialGradient>
<linearGradient id="paint19_linear_222_2776" x1="100.909" y1="52.0844" x2="104.127" y2="52.0844" gradientUnits="userSpaceOnUse">
<stop stop-color="#FFC92F"/>
<stop offset="1" stop-color="#FFEA47"/>
</linearGradient>
<linearGradient id="paint20_linear_222_2776" x1="96.8712" y1="51.4989" x2="100.915" y2="51.722" gradientUnits="userSpaceOnUse">
<stop stop-color="#F49F22"/>
<stop offset="1" stop-color="#E88830" stop-opacity="0"/>
<stop offset="1" stop-color="#F49F22" stop-opacity="0"/>
</linearGradient>
<linearGradient id="paint21_linear_222_2776" x1="100.909" y1="53.5855" x2="100.909" y2="56.7924" gradientUnits="userSpaceOnUse">
<stop stop-color="#E88830" stop-opacity="0"/>
<stop offset="0.844655" stop-color="#E88830"/>
</linearGradient>
<linearGradient id="paint22_linear_222_2776" x1="100.909" y1="45.1248" x2="100.909" y2="46.7035" gradientUnits="userSpaceOnUse">
<stop stop-color="#FAC137"/>
<stop offset="1" stop-color="#FAC137" stop-opacity="0"/>
</linearGradient>
<radialGradient id="paint23_radial_222_2776" cx="0" cy="0" r="1" gradientUnits="userSpaceOnUse" gradientTransform="translate(96.6677 61.3515) rotate(-60.732) scale(2.67397 7.78134)">
<stop stop-color="#FFB534"/>
<stop offset="1" stop-color="#FFB534" stop-opacity="0"/>
</radialGradient>
<radialGradient id="paint24_radial_222_2776" cx="0" cy="0" r="1" gradientUnits="userSpaceOnUse" gradientTransform="translate(100.911 62.294) rotate(-90) scale(2.71404 10.9193)">
<stop stop-color="#89014E"/>
<stop offset="1" stop-color="#87004D"/>
</radialGradient>
<linearGradient id="paint25_linear_222_2776" x1="121.108" y1="27.6427" x2="82.9856" y2="27.6427" gradientUnits="userSpaceOnUse">
<stop stop-color="#FFE235"/>
<stop offset="1" stop-color="#D29935"/>
</linearGradient>
<radialGradient id="paint26_radial_222_2776" cx="0" cy="0" r="1" gradientUnits="userSpaceOnUse" gradientTransform="translate(81.2183 43.009) rotate(-90) scale(21.5357 38.1569)">
<stop offset="0.314517" stop-color="#C98537"/>
<stop offset="1" stop-color="#C98537" stop-opacity="0"/>
</radialGradient>
<radialGradient id="paint27_radial_222_2776" cx="0" cy="0" r="1" gradientUnits="userSpaceOnUse" gradientTransform="translate(119.215 43.009) rotate(-90) scale(13.6793 24.237)">
<stop stop-color="#FFB52A"/>
<stop offset="1" stop-color="#FFB52A" stop-opacity="0"/>
</radialGradient>
<radialGradient id="paint28_radial_222_2776" cx="0" cy="0" r="1" gradientUnits="userSpaceOnUse" gradientTransform="translate(116.375 19.3743) rotate(-160.666) scale(16.3879 8.72764)">
<stop offset="0.347073" stop-color="#FFE639"/>
<stop offset="1" stop-color="#FFE639" stop-opacity="0"/>
</radialGradient>
<radialGradient id="paint29_radial_222_2776" cx="0" cy="0" r="1" gradientUnits="userSpaceOnUse" gradientTransform="translate(97.5025 13.3782) rotate(58.4652) scale(6.51668 15.0896)">
<stop offset="0.286771" stop-color="#F3C130"/>
<stop offset="1" stop-color="#F3C130" stop-opacity="0"/>
</radialGradient>
<radialGradient id="paint30_radial_222_2776" cx="0" cy="0" r="1" gradientUnits="userSpaceOnUse" gradientTransform="translate(101.866 18.8093) rotate(160.16) scale(15.2401 4.24168)">
<stop stop-color="#FFDD30"/>
<stop offset="1" stop-color="#FFDC2B" stop-opacity="0"/>
</radialGradient>
<radialGradient id="paint31_radial_222_2776" cx="0" cy="0" r="1" gradientUnits="userSpaceOnUse" gradientTransform="translate(80.4611 36.7315) rotate(-57.7244) scale(22.6941 25.1428)">
<stop offset="0.0926981" stop-color="#D67227"/>
<stop offset="0.233498" stop-color="#EF8A23"/>
<stop offset="1" stop-color="#EF8A23" stop-opacity="0"/>
</radialGradient>
<radialGradient id="paint32_radial_222_2776" cx="0" cy="0" r="1" gradientUnits="userSpaceOnUse" gradientTransform="translate(114.545 23.1786) rotate(13.3074) scale(13.1015 7.32724)">
<stop stop-color="#FFEB3B"/>
<stop offset="1" stop-color="#FFEB3B" stop-opacity="0"/>
</radialGradient>
<radialGradient id="paint33_radial_222_2776" cx="0" cy="0" r="1" gradientUnits="userSpaceOnUse" gradientTransform="translate(120.225 40.518) rotate(-120.119) scale(16.1238 8.99212)">
<stop stop-color="#EB8F29"/>
<stop offset="1" stop-color="#EB8F29" stop-opacity="0"/>
</radialGradient>
<radialGradient id="paint34_radial_222_2776" cx="0" cy="0" r="1" gradientUnits="userSpaceOnUse" gradientTransform="translate(117.89 39.3877) rotate(-120.695) scale(9.64425 6.90777)">
<stop offset="0.394122" stop-color="#E48421"/>
<stop offset="1" stop-color="#E48421" stop-opacity="0"/>
</radialGradient>
<radialGradient id="paint35_radial_222_2776" cx="0" cy="0" r="1" gradientUnits="userSpaceOnUse" gradientTransform="translate(118.963 22.7388) rotate(166.509) scale(18.5819 20.0878)">
<stop offset="0.734853" stop-color="#F29415" stop-opacity="0"/>
<stop offset="1" stop-color="#F29415"/>
</radialGradient>
<radialGradient id="paint36_radial_222_2776" cx="0" cy="0" r="1" gradientUnits="userSpaceOnUse" gradientTransform="translate(113.913 22.2676) rotate(107.002) scale(1.51103 6.90824)">
<stop offset="0.461072" stop-color="#FFCE3C"/>
<stop offset="1" stop-color="#FFCE3C" stop-opacity="0"/>
</radialGradient>
<radialGradient id="paint37_radial_222_2776" cx="0" cy="0" r="1" gradientUnits="userSpaceOnUse" gradientTransform="translate(109.126 45.5155) rotate(90) scale(3.05417 4.858)">
<stop offset="0.80198" stop-color="#925C51"/>
<stop offset="1" stop-color="#694B43"/>
<stop offset="1" stop-color="#804D49"/>
<stop offset="1" stop-color="#85534D"/>
</radialGradient>
<radialGradient id="paint38_radial_222_2776" cx="0" cy="0" r="1" gradientUnits="userSpaceOnUse" gradientTransform="translate(108.265 45.8322) rotate(-127.812) scale(1.42237 1.95826)">
<stop offset="0.765532" stop-color="#FFE6E2" stop-opacity="0"/>
<stop offset="0.966159" stop-color="#FFE6E2"/>
</radialGradient>
<linearGradient id="paint39_linear_222_2776" x1="112.052" y1="45.7169" x2="110.874" y2="46.443" gradientUnits="userSpaceOnUse">
<stop stop-color="#B4948D"/>
<stop offset="1" stop-color="#B4948D" stop-opacity="0"/>
</linearGradient>
<radialGradient id="paint40_radial_222_2776" cx="0" cy="0" r="1" gradientUnits="userSpaceOnUse" gradientTransform="translate(92.6926 45.5153) rotate(90) scale(3.05433 4.85825)">
<stop offset="0.80198" stop-color="#925C51"/>
<stop offset="1" stop-color="#694B43"/>
<stop offset="1" stop-color="#804D49"/>
<stop offset="1" stop-color="#85534D"/>
</radialGradient>
<linearGradient id="paint41_linear_222_2776" x1="95.4901" y1="45.7162" x2="94.3116" y2="46.4424" gradientUnits="userSpaceOnUse">
<stop stop-color="#B4948D"/>
<stop offset="1" stop-color="#B4948D" stop-opacity="0"/>
</linearGradient>
<radialGradient id="paint42_radial_222_2776" cx="0" cy="0" r="1" gradientUnits="userSpaceOnUse" gradientTransform="translate(91.6132 46.3397) rotate(-90.897) scale(1.85799 2.23338)">
<stop offset="0.765532" stop-color="#FFE6E2" stop-opacity="0"/>
<stop offset="0.966159" stop-color="#FFE6E2"/>
</radialGradient>
<linearGradient id="paint43_linear_222_2776" x1="125.149" y1="45.8211" x2="120.605" y2="54.016" gradientUnits="userSpaceOnUse">
<stop stop-color="#FFE343"/>
<stop offset="1" stop-color="#FFC136"/>
</linearGradient>
<radialGradient id="paint44_radial_222_2776" cx="0" cy="0" r="1" gradientUnits="userSpaceOnUse" gradientTransform="translate(118.301 45.5687) rotate(74.3475) scale(8.77272 8.36985)">
<stop offset="0.856273" stop-color="#E1943D" stop-opacity="0"/>
<stop offset="1" stop-color="#E08F2E"/>
</radialGradient>
<radialGradient id="paint45_radial_222_2776" cx="0" cy="0" r="1" gradientUnits="userSpaceOnUse" gradientTransform="translate(119.658 47.62) rotate(-53.9199) scale(5.03724 4.2222)">
<stop offset="0.663731" stop-color="#FFBD22"/>
<stop offset="1" stop-color="#FFBD22" stop-opacity="0"/>
</radialGradient>
<linearGradient id="paint46_linear_222_2776" x1="78.8829" y1="48.4725" x2="84.3741" y2="47.993" gradientUnits="userSpaceOnUse">
<stop stop-color="#E39726"/>
<stop offset="1" stop-color="#D9851D"/>
</linearGradient>
<radialGradient id="paint47_radial_222_2776" cx="0" cy="0" r="1" gradientUnits="userSpaceOnUse" gradientTransform="translate(81.092 46.2003) rotate(101.248) scale(7.97068 7.83591)">
<stop offset="0.77507" stop-color="#C77937" stop-opacity="0"/>
<stop offset="1" stop-color="#C77937"/>
</radialGradient>
<linearGradient id="paint48_linear_222_2776" x1="129.926" y1="42.1022" x2="134.374" y2="42.1022" gradientUnits="userSpaceOnUse">
<stop stop-color="#33203C"/>
<stop offset="1" stop-color="#61546D"/>
</linearGradient>
<radialGradient id="paint49_radial_222_2776" cx="0" cy="0" r="1" gradientUnits="userSpaceOnUse" gradientTransform="translate(133.244 52.3256) rotate(-90) scale(8.75525 0.676178)">
<stop stop-color="#70635D"/>
<stop offset="1" stop-color="#70635D" stop-opacity="0"/>
</radialGradient>
<radialGradient id="paint50_radial_222_2776" cx="0" cy="0" r="1" gradientUnits="userSpaceOnUse" gradientTransform="translate(111.477 31.5608) rotate(-102.428) scale(14.7022 78.4364)">
<stop stop-color="#534D5B"/>
<stop offset="1" stop-color="#2B2135"/>
</radialGradient>
<linearGradient id="paint51_linear_222_2776" x1="107.727" y1="23.4141" x2="102.922" y2="7.00781" gradientUnits="userSpaceOnUse">
<stop stop-color="#3D294B"/>
<stop offset="1" stop-color="#433A4D"/>
</linearGradient>
<radialGradient id="paint52_radial_222_2776" cx="0" cy="0" r="1" gradientUnits="userSpaceOnUse" gradientTransform="translate(122.61 17.5547) rotate(90) scale(3.51563 47.5781)">
<stop stop-color="#696070"/>
<stop offset="0.866667" stop-color="#696070" stop-opacity="0"/>
</radialGradient>
<radialGradient id="paint53_radial_222_2776" cx="0" cy="0" r="1" gradientUnits="userSpaceOnUse" gradientTransform="translate(66.4771 19.8984) scale(29.0625 3.28125)">
<stop stop-color="#75707B"/>
<stop offset="0.935484" stop-color="#75707B" stop-opacity="0"/>
</radialGradient>
<radialGradient id="paint54_radial_222_2776" cx="0" cy="0" r="1" gradientUnits="userSpaceOnUse" gradientTransform="translate(134.212 53.7184) rotate(126.437) scale(5.13051 4.59812)">
<stop stop-color="#686071"/>
<stop offset="0.661286" stop-color="#402A4C"/>
</radialGradient>
<radialGradient id="paint55_radial_222_2776" cx="0" cy="0" r="1" gradientUnits="userSpaceOnUse" gradientTransform="translate(129.195 55.1866) rotate(-6.43681) scale(3.00528 3.52489)">
<stop offset="0.0866887" stop-color="#685352"/>
<stop offset="1" stop-color="#685352" stop-opacity="0"/>
</radialGradient>
<linearGradient id="paint56_linear_222_2776" x1="133.223" y1="22.478" x2="133.223" y2="51.6063" gradientUnits="userSpaceOnUse">
<stop stop-color="#60546C"/>
<stop offset="1" stop-color="#504B55"/>
</linearGradient>
<linearGradient id="paint57_linear_222_2776" x1="136.654" y1="64.0942" x2="127.957" y2="64.0942" gradientUnits="userSpaceOnUse">
<stop stop-color="#F9B72A"/>
<stop offset="0.89726" stop-color="#FAAC28"/>
</linearGradient>
<radialGradient id="paint58_radial_222_2776" cx="0" cy="0" r="1" gradientUnits="userSpaceOnUse" gradientTransform="translate(137.071 63.6389) rotate(169.33) scale(4.18244 20.865)">
<stop offset="0.285799" stop-color="#FFD93A"/>
<stop offset="1" stop-color="#FFD93A" stop-opacity="0"/>
</radialGradient>
<radialGradient id="paint59_radial_222_2776" cx="0" cy="0" r="1" gradientUnits="userSpaceOnUse" gradientTransform="translate(132.337 71.9297) rotate(-90) scale(4.92188 10.8391)">
<stop offset="0.421677" stop-color="#A16739"/>
<stop offset="1" stop-color="#DB9820" stop-opacity="0"/>
</radialGradient>
<radialGradient id="paint60_radial_222_2776" cx="0" cy="0" r="1" gradientUnits="userSpaceOnUse" gradientTransform="translate(132.337 57.7207) rotate(90) scale(1.49414 5.18163)">
<stop offset="0.16129" stop-color="#845D03"/>
<stop offset="1" stop-color="#EBA429" stop-opacity="0"/>
</radialGradient>
<radialGradient id="paint61_radial_222_2776" cx="0" cy="0" r="1" gradientUnits="userSpaceOnUse" gradientTransform="translate(59.8564 121.052) rotate(-90) scale(61.4002 16.3674)">
<stop stop-color="#766C83"/>
<stop offset="0.441285" stop-color="#58496A"/>
<stop offset="1" stop-color="#4D4159"/>
</radialGradient>
<radialGradient id="paint62_radial_222_2776" cx="0" cy="0" r="1" gradientUnits="userSpaceOnUse" gradientTransform="translate(73.9769 121.052) rotate(-90) scale(39.4506 3.09047)">
<stop offset="0.285977" stop-color="#4F445B"/>
<stop offset="1" stop-color="#4F445B" stop-opacity="0"/>
</radialGradient>
<linearGradient id="paint63_linear_222_2776" x1="74.5175" y1="113.81" x2="72.9224" y2="113.81" gradientUnits="userSpaceOnUse">
<stop offset="0.444444" stop-color="#433850"/>
<stop offset="1" stop-color="#433850" stop-opacity="0"/>
</linearGradient>
<radialGradient id="paint64_radial_222_2776" cx="0" cy="0" r="1" gradientUnits="userSpaceOnUse" gradientTransform="translate(135.258 121.052) rotate(-100.465) scale(38.8707 10.9173)">
<stop stop-color="#736782"/>
<stop offset="1" stop-color="#5F5070"/>
</radialGradient>
<radialGradient id="paint65_radial_222_2776" cx="0" cy="0" r="1" gradientUnits="userSpaceOnUse" gradientTransform="translate(127.566 95.408) rotate(87.4134) scale(45.1714 2.63804)">
<stop offset="0.176695" stop-color="#3F2A51"/>
<stop offset="1" stop-color="#3F2A51" stop-opacity="0"/>
</radialGradient>
<linearGradient id="paint66_linear_222_2776" x1="101.088" y1="120.562" x2="101.088" y2="96.4365" gradientUnits="userSpaceOnUse">
<stop stop-color="#3F3748"/>
<stop offset="1" stop-color="#3F3748" stop-opacity="0"/>
</linearGradient>
<linearGradient id="paint67_linear_222_2776" x1="101.088" y1="120.562" x2="101.088" y2="96.4365" gradientUnits="userSpaceOnUse">
<stop stop-color="#3F3748"/>
<stop offset="1" stop-color="#3F3748" stop-opacity="0"/>
</linearGradient>
<linearGradient id="paint68_linear_222_2776" x1="101.088" y1="120.562" x2="101.088" y2="96.4365" gradientUnits="userSpaceOnUse">
<stop stop-color="#3F3748"/>
<stop offset="1" stop-color="#3F3748" stop-opacity="0"/>
</linearGradient>
</defs>
</svg>
