<svg width="48" height="48" viewBox="0 0 48 48" fill="none" xmlns="http://www.w3.org/2000/svg">
<path fill-rule="evenodd" clip-rule="evenodd" d="M24.0004 8C25.1048 8 26.0004 8.89544 26.0004 10V19.9999C26.0004 21.1045 25.1048 21.9999 24.0004 21.9999C22.8958 21.9999 22.0004 21.1045 22.0004 19.9999V10C22.0004 8.89544 22.8958 8 24.0004 8ZM8.28532 14.971C8.85362 14.0238 10.0821 13.7167 11.0293 14.285L21.0292 20.2849C21.9764 20.8533 22.2836 22.0817 21.7152 23.0289C21.3466 23.6433 20.7004 23.9883 20.0332 23.9999C20.7004 24.0115 21.3466 24.3567 21.7152 24.9709C22.2836 25.9181 21.9764 27.1467 21.0292 27.7149L11.0293 33.7149C10.0821 34.2833 8.85362 33.9761 8.28532 33.0289C7.71702 32.0817 8.02416 30.8533 8.97132 30.2849L18.9713 24.2849C19.2829 24.0981 19.6249 24.0059 19.9638 23.9999C19.6249 23.9941 19.2829 23.9019 18.9713 23.7149L8.97132 17.715C8.02416 17.1467 7.71702 15.9182 8.28532 14.971ZM39.7152 14.971C40.2836 15.9182 39.9764 17.1467 39.0292 17.715L29.0292 23.7149C28.7178 23.9019 28.3758 23.9941 28.0368 23.9999C28.3758 24.0059 28.7178 24.0981 29.0292 24.2849L39.0292 30.2849C39.9764 30.8533 40.2836 32.0817 39.7152 33.0289C39.147 33.9761 37.9184 34.2833 36.9714 33.7149L26.9714 27.7149C26.0242 27.1467 25.717 25.9181 26.2854 24.9709C26.654 24.3567 27.3002 24.0115 27.9674 23.9999C27.3002 23.9883 26.654 23.6433 26.2854 23.0289C25.717 22.0817 26.0242 20.8533 26.9714 20.2849L36.9714 14.285C37.9184 13.7167 39.147 14.0238 39.7152 14.971ZM24.0004 25.9999C25.1048 25.9999 26.0004 26.8953 26.0004 27.9999V37.9999C26.0004 39.1045 25.1048 39.9999 24.0004 39.9999C22.8958 39.9999 22.0004 39.1045 22.0004 37.9999V27.9999C22.0004 26.8953 22.8958 25.9999 24.0004 25.9999Z" fill="#00979B"/>
<path fill-rule="evenodd" clip-rule="evenodd" d="M22.7888 6.10552C23.2828 7.09348 22.8824 8.29482 21.8944 8.7888L9.89442 14.7888C8.90648 15.2828 7.70512 14.8823 7.21114 13.8944C6.71716 12.9064 7.11762 11.7051 8.10558 11.2111L20.1056 5.2111C21.0936 4.71712 22.2948 5.11756 22.7888 6.10552ZM25.2112 6.10552C25.7052 5.11756 26.9064 4.71712 27.8944 5.2111L39.8944 11.2111C40.8824 11.7051 41.2828 12.9064 40.7888 13.8944C40.2948 14.8823 39.0936 15.2828 38.1056 14.7888L26.1056 8.7888C25.1176 8.29482 24.7172 7.09348 25.2112 6.10552ZM7 16C8.10456 16 9 16.8954 9 18V29.9999C9 31.1045 8.10456 31.9999 7 31.9999C5.89544 31.9999 5 31.1045 5 29.9999V18C5 16.8954 5.89544 16 7 16ZM41 16C42.1046 16 43 16.8954 43 18V28.9999C43 30.1045 42.1046 30.9999 41 30.9999C39.8954 30.9999 39 30.1045 39 28.9999V18C39 16.8954 39.8954 16 41 16ZM7.21114 34.1055C7.70512 33.1175 8.90648 32.7171 9.89442 33.2111L21.8944 39.2111C22.8824 39.7051 23.2828 40.9063 22.7888 41.8943C22.2948 42.8823 21.0936 43.2827 20.1056 42.7887L8.10558 36.7887C7.11762 36.2947 6.71716 35.0935 7.21114 34.1055ZM39.7558 34.0423C40.2848 35.0119 39.9274 36.2267 38.9578 36.7557L27.9578 42.7557C26.988 43.2847 25.7732 42.9273 25.2442 41.9577C24.7152 40.9879 25.0726 39.7731 26.0422 39.2441L37.0422 33.2441C38.012 32.7151 39.2268 33.0725 39.7558 34.0423Z" fill="#00979B"/>
<path fill-rule="evenodd" clip-rule="evenodd" d="M19 7C19 4.23858 21.2386 2 24 2C26.7614 2 29 4.23858 29 7C29 9.76142 26.7614 12 24 12C21.2386 12 19 9.76142 19 7Z" fill="#00979B"/>
<path fill-rule="evenodd" clip-rule="evenodd" d="M19 41C19 38.2386 21.2386 36 24 36C26.7614 36 29 38.2386 29 41C29 43.7614 26.7614 46 24 46C21.2386 46 19 43.7614 19 41Z" fill="#00979B"/>
<path fill-rule="evenodd" clip-rule="evenodd" d="M2 15C2 12.2386 4.23858 10 7 10C9.76142 10 12 12.2386 12 15C12 17.7614 9.76142 20 7 20C4.23858 20 2 17.7614 2 15Z" fill="#00979B"/>
<path fill-rule="evenodd" clip-rule="evenodd" d="M36 15C36 12.2386 38.2386 10 41 10C43.7614 10 46 12.2386 46 15C46 17.7614 43.7614 20 41 20C38.2386 20 36 17.7614 36 15Z" fill="#00979B"/>
<path fill-rule="evenodd" clip-rule="evenodd" d="M36 33C36 30.2386 38.2386 28 41 28C43.7614 28 46 30.2386 46 33C46 35.7614 43.7614 38 41 38C38.2386 38 36 35.7614 36 33Z" fill="#00979B"/>
<path fill-rule="evenodd" clip-rule="evenodd" d="M2 33C2 30.2386 4.23858 28 7 28C9.76142 28 12 30.2386 12 33C12 35.7614 9.76142 38 7 38C4.23858 38 2 35.7614 2 33Z" fill="#00979B"/>
<path fill-rule="evenodd" clip-rule="evenodd" d="M23.0194 17.7568C23.6284 17.4144 24.3716 17.4144 24.9806 17.7568L28.9806 20.0068C29.6102 20.361 30 21.0274 30 21.75V26.25C30 26.9726 29.6102 27.639 28.9806 27.9932L24.9806 30.2432C24.3716 30.5856 23.6284 30.5856 23.0194 30.2432L19.0195 27.9932C18.3897 27.639 18 26.9726 18 26.25V21.75C18 21.0274 18.3897 20.361 19.0195 20.0068L23.0194 17.7568Z" fill="#00979B"/>
</svg>
