<svg width="48" height="48" viewBox="0 0 48 48" fill="none" xmlns="http://www.w3.org/2000/svg">
<path fill-rule="evenodd" clip-rule="evenodd" d="M27.416 11.6839C28.9942 12.9589 30.5656 14.3708 32.0974 15.9025C33.6292 17.4342 35.041 19.0058 36.316 20.5837C37.2996 19.0295 38.1002 17.5275 38.7018 16.1234C39.5498 14.145 39.9608 12.4585 39.9972 11.1504C40.0336 9.84816 39.7024 9.11462 39.2938 8.70602C38.8852 8.2974 38.1518 7.96626 36.8494 8.0026C35.5414 8.0391 33.8548 8.4501 31.8764 9.29802C30.4724 9.89976 28.9704 10.7003 27.416 11.6839ZM24 9.14256C26.1626 7.6709 28.292 6.48234 30.3008 5.62144C32.5554 4.6552 34.7558 4.05946 36.7378 4.00416C38.7256 3.9487 40.6854 4.44066 42.1222 5.87758C43.5592 7.31452 44.0512 9.2742 43.9958 11.262C43.9404 13.244 43.3446 15.4446 42.3784 17.6991C41.5176 19.7079 40.329 21.8371 38.8574 23.9999C40.329 26.1627 41.5176 28.2919 42.3784 30.3007C43.3446 32.5553 43.9404 34.7559 43.9958 36.7379C44.0512 38.7257 43.5592 40.6853 42.1222 42.1223C40.6854 43.5591 38.7256 44.0511 36.7378 43.9957C34.7558 43.9403 32.5554 43.3447 30.3008 42.3783C28.292 41.5175 26.1626 40.3289 24 38.8573C21.8372 40.3289 19.7079 41.5175 17.6991 42.3783C15.4446 43.3447 13.244 43.9403 11.262 43.9957C9.2742 44.0511 7.31452 43.5591 5.87758 42.1223C4.44066 40.6853 3.9487 38.7257 4.00416 36.7379C4.05948 34.7559 4.6552 32.5553 5.62144 30.3007C6.48234 28.2919 7.6709 26.1627 9.14256 23.9999C7.6709 21.8371 6.48234 19.7079 5.62144 17.6991C4.6552 15.4446 4.05948 13.244 4.00416 11.262C3.9487 9.2742 4.44066 7.31452 5.87758 5.87758C7.31452 4.44066 9.2742 3.9487 11.262 4.00416C13.244 4.05946 15.4446 4.6552 17.6991 5.62144C19.7079 6.48234 21.8372 7.6709 24 9.14256ZM11.6839 20.5837C10.7004 19.0295 9.89976 17.5275 9.29802 16.1234C8.4501 14.145 8.03912 12.4585 8.0026 11.1504C7.96626 9.84816 8.29742 9.11462 8.70602 8.70602C9.11462 8.2974 9.84816 7.96626 11.1504 8.0026C12.4585 8.0391 14.145 8.4501 16.1234 9.29802C17.5275 9.89976 19.0295 10.7003 20.5838 11.6839C19.0058 12.9589 17.4342 14.3708 15.9025 15.9025C14.3708 17.4342 12.9589 19.0058 11.6839 20.5837ZM14.0829 23.9999C15.4347 22.2469 16.9909 20.4709 18.7309 18.7309C20.4708 16.9909 22.247 15.4347 24 14.0829C25.7528 15.4347 27.529 16.9909 29.269 18.7309C31.009 20.4709 32.5652 22.2469 33.917 23.9999C32.5652 25.7529 31.009 27.5289 29.269 29.2689C27.529 31.0089 25.7528 32.5651 24 33.9169C22.247 32.5651 20.4708 31.0089 18.7309 29.2689C16.9909 27.5289 15.4347 25.7529 14.0829 23.9999ZM11.6839 27.4161C10.7004 28.9703 9.89976 30.4723 9.29802 31.8763C8.4501 33.8549 8.03912 35.5413 8.0026 36.8493C7.96626 38.1517 8.29742 38.8853 8.70602 39.2939C9.11462 39.7025 9.84816 40.0335 11.1504 39.9973C12.4585 39.9607 14.145 39.5497 16.1234 38.7019C17.5275 38.1001 19.0295 37.2995 20.5838 36.3159C19.0058 35.0409 17.4342 33.6291 15.9025 32.0973C14.3708 30.5657 12.9589 28.9941 11.6839 27.4161ZM27.416 36.3159C28.9704 37.2995 30.4724 38.1001 31.8764 38.7019C33.8548 39.5497 35.5414 39.9607 36.8494 39.9973C38.1518 40.0335 38.8852 39.7025 39.2938 39.2939C39.7024 38.8853 40.0336 38.1517 39.9972 36.8493C39.9608 35.5413 39.5498 33.8549 38.7018 31.8763C38.1002 30.4723 37.2996 28.9703 36.316 27.4161C35.041 28.9941 33.6292 30.5657 32.0974 32.0973C30.5656 33.6291 28.9942 35.0409 27.416 36.3159Z" fill="#C533E3"/>
<path fill-rule="evenodd" clip-rule="evenodd" d="M21 24C21 22.343 22.3392 21 23.991 21H24.009C25.6608 21 27 22.343 27 24C27 25.6568 25.6608 27 24.009 27H23.991C22.3392 27 21 25.6568 21 24Z" fill="#C533E3"/>
</svg>
