<svg width="48" height="48" viewBox="0 0 48 48" fill="none" xmlns="http://www.w3.org/2000/svg">
<path fill-rule="evenodd" clip-rule="evenodd" d="M14 6.5H15.1944V16.6782L5.25646 35.7492C4.75956 36.7028 4.5 37.7632 4.5 38.8396C4.5 42.518 7.4665 45.5 11.1259 45.5H31.2919C31.2769 45.463 31.2625 45.4258 31.2485 45.3882L30.7327 43.994C30.3635 42.996 30.1073 42.362 29.9593 42.0406C29.6381 41.8926 29.0039 41.6366 28.0059 41.2672L26.6119 40.7514C25.0421 40.1706 23.9999 38.6738 23.9999 37C23.9999 35.3262 25.0421 33.8294 26.6119 33.2486L28.0059 32.7328C29.0039 32.3634 29.6381 32.1074 29.9593 31.9594L30.7327 30.006L31.2485 28.6118C31.6811 27.443 32.6215 26.5666 33.7649 26.1952L28.8055 16.6782V6.5H29.9999C31.1045 6.5 31.9999 5.60456 31.9999 4.5C31.9999 3.39544 31.1045 2.5 29.9999 2.5H26.8609H17.1388H14C12.8954 2.5 12 3.39544 12 4.5C12 5.60456 12.8954 6.5 14 6.5ZM19.0833 17.1602V6.5H24.9165V17.1602C24.9165 17.4761 24.9927 17.7873 25.1385 18.0671L26.7031 21.0692H17.2969L18.8613 18.0671C19.0071 17.7872 19.0833 17.4761 19.0833 17.1602ZM36.4067 29.4794C36.1889 28.8908 35.6277 28.5 34.9999 28.5C34.3723 28.5 33.8111 28.8908 33.5931 29.4794L33.0773 30.8734C32.3533 32.8302 32.1223 33.3618 31.7421 33.7422C31.3617 34.1224 30.8301 34.3534 28.8735 35.0774L27.4795 35.5932C26.8907 35.811 26.4999 36.3724 26.4999 37C26.4999 37.6276 26.8907 38.189 27.4795 38.4068L28.8735 38.9226C30.8301 39.6466 31.3617 39.8776 31.7421 40.2578C32.1225 40.6382 32.3533 41.1698 33.0773 43.1266L33.5933 44.5206C33.8111 45.1092 34.3723 45.5 34.9999 45.5C35.6277 45.5 36.1889 45.1092 36.4067 44.5206L36.9227 43.1266C37.6467 41.1698 37.8775 40.6382 38.2579 40.2578C38.6381 39.8776 39.1697 39.6466 41.1265 38.9226L42.5205 38.4068C43.1091 38.189 43.4999 37.6276 43.4999 37C43.4999 36.3724 43.1091 35.811 42.5205 35.5932L41.1265 35.0774C39.1697 34.3534 38.6381 34.1224 38.2579 33.7422C37.8775 33.3618 37.6467 32.8302 36.9227 30.8734L36.4067 29.4794Z" fill="#E98800"/>
</svg>
