<svg width="48" height="48" viewBox="0 0 48 48" fill="none" xmlns="http://www.w3.org/2000/svg">
<path fill-rule="evenodd" clip-rule="evenodd" d="M22.9022 10.5H26.0312C26.0106 10.6644 26 10.8313 26 11C26 12.6738 27.0422 14.1705 28.6118 14.7514L30.006 15.2673C31.004 15.6366 31.6396 15.8833 31.961 16.0313C32.109 16.3525 32.3634 16.9961 32.7328 17.9941L33.2486 19.3881C33.8294 20.9578 35.3262 22 37 22C38.6738 22 40.1706 20.9578 40.7514 19.3881L41.2672 17.9941C41.6366 16.9961 41.8832 16.376 42.0312 16.0547C42.0796 16.0324 42.1352 16.0074 42.1982 15.9797C42.8088 17.1981 43.1198 18.5748 43.2882 20.174C43.5 22.1828 43.5 24.9258 43.5 28.131C43.5 31.791 43.5 34.718 43.1334 37.0146C42.7508 39.4118 41.9406 41.3248 40.1838 42.8042C38.464 44.2524 36.3044 44.8906 33.5928 45.1976C30.9216 45.5 27.4932 45.5 23.0978 45.5C18.7023 45.5 15.0785 45.5 12.4072 45.1976C9.69558 44.8906 7.53596 44.2524 5.81628 42.8042C4.05938 41.3248 3.2493 39.4118 2.86658 37.0146C2.49992 34.718 2.49996 31.791 2.5 28.131C2.49996 24.471 2.49992 21.282 2.86658 18.9853C3.2493 16.5882 4.05938 14.6753 5.81628 13.1958C7.53596 11.7476 9.69558 11.1094 12.4072 10.8024C15.0785 10.5 18.5067 10.5 22.9022 10.5ZM30.0206 25.1362C29.3932 24.5954 29.323 23.6482 29.8638 23.0208C30.4046 22.3932 31.3518 22.323 31.9794 22.8638L34.4952 25.0322C34.956 25.4294 35.4102 25.8206 35.7364 26.1892C36.0974 26.597 36.5 27.1908 36.5 28C36.5 28.8092 36.0974 29.403 35.7364 29.8108C35.4102 30.1794 34.956 30.5706 34.4952 30.9678L31.9794 33.1362C31.3518 33.677 30.4046 33.6068 29.8638 32.9794C29.323 32.3518 29.3932 31.4046 30.0206 30.8638L33.3182 28L30.0206 25.1362ZM16.1362 23.0208C16.6771 23.6482 16.6068 24.5954 15.9793 25.1362L12.6817 28L15.9793 30.8638C16.6068 31.4046 16.6771 32.3518 16.1362 32.9794C15.5953 33.6068 14.6482 33.677 14.0207 33.1362L11.5049 30.9678C11.0439 30.5706 10.5899 30.1796 10.2636 29.8108C9.9026 29.403 9.5 28.8092 9.5 28C9.5 27.1908 9.9026 26.597 10.2636 26.1892C10.5899 25.8206 11.0439 25.4294 11.5049 25.0322L14.0207 22.8638C14.6482 22.323 15.5953 22.3932 16.1362 23.0208ZM26.4234 22.4748C26.6854 21.6888 26.2606 20.8394 25.4748 20.5774C24.6888 20.3154 23.8394 20.7402 23.5774 21.526L19.5774 33.526C19.3154 34.312 19.7402 35.1614 20.526 35.4234C21.312 35.6854 22.1614 35.2606 22.4234 34.4748L26.4234 22.4748Z" fill="#004C47"/>
<path d="M37 2.5C37.6276 2.5 38.189 2.8908 38.4068 3.47944L38.9226 4.8735C39.6466 6.8302 39.8776 7.36182 40.2578 7.74212C40.6382 8.12242 41.1698 8.35334 43.1266 9.07738L44.5206 9.59322C45.1092 9.81104 45.5 10.3723 45.5 11C45.5 11.6277 45.1092 12.189 44.5206 12.4068L43.1266 12.9226C41.1698 13.6467 40.6382 13.8776 40.2578 14.2579C39.8776 14.6382 39.6466 15.1698 38.9226 17.1265L38.4068 18.5206C38.189 19.1092 37.6276 19.5 37 19.5C36.3724 19.5 35.811 19.1092 35.5932 18.5206L35.0774 17.1265C34.3534 15.1698 34.1224 14.6382 33.7422 14.2579C33.3618 13.8776 32.8302 13.6467 30.8734 12.9226L29.4794 12.4068C28.8908 12.189 28.5 11.6277 28.5 11C28.5 10.3723 28.8908 9.81104 29.4794 9.59322L30.8734 9.07738C32.8302 8.35334 33.3618 8.12242 33.7422 7.74212C34.1224 7.36182 34.3534 6.8302 35.0774 4.8735L35.5932 3.47944C35.811 2.8908 36.3724 2.5 37 2.5Z" fill="#004C47"/>
</svg>
