<svg width="24" height="24" viewBox="0 0 24 24" fill="none" xmlns="http://www.w3.org/2000/svg">
<path d="M1.96816 17.0964C1.60744 17.8341 1.33641 18.5328 1.17455 19.1718C0.906612 20.2295 0.856263 21.4745 1.69227 22.309C2.43116 23.0466 3.49349 23.0866 4.42209 22.9134C5.38879 22.7331 6.4981 22.2757 7.66484 21.6336C10.0105 20.3428 12.7969 18.1891 15.4953 15.4903C18.1937 12.7915 20.3465 10.0053 21.6362 7.66015C22.2777 6.4937 22.7345 5.38465 22.9141 4.41824C23.0866 3.48976 23.0455 2.42754 22.3063 1.68962C21.4664 0.851215 20.2131 0.907145 19.1491 1.18033C18.5168 1.34268 17.8262 1.61136 17.0972 1.96776C17.8167 2.33405 18.4915 2.77546 19.1113 3.28165C19.2996 3.21542 19.4782 3.1607 19.6465 3.1175C20.5724 2.87978 20.8532 3.06497 20.8933 3.10508C20.9243 3.13594 21.0796 3.34346 20.9478 4.0529C20.823 4.7244 20.4749 5.62142 19.8837 6.69638C18.708 8.8341 16.6848 11.472 14.081 14.0762C11.4772 16.6804 8.83903 18.7046 6.70059 19.8814C5.62529 20.4731 4.72768 20.8219 4.05544 20.9473C3.34511 21.0798 3.13647 20.9247 3.10524 20.8935C3.06593 20.8543 2.88145 20.5782 3.11332 19.6629C3.1572 19.4896 3.21341 19.3053 3.28195 19.1104C2.77579 18.4906 2.33442 17.8158 1.96816 17.0964Z" fill="#752FD8"/>
<path d="M12 2.25C6.61522 2.25 2.25 6.61522 2.25 12C2.25 14.7325 3.37406 17.2025 5.18501 18.9727C5.42718 18.8593 5.6914 18.7251 5.97723 18.5678C7.96028 17.4765 10.4872 15.5495 13.0201 13.0162C15.553 10.4829 17.4791 7.9563 18.5692 5.97411C18.7258 5.68934 18.8594 5.42607 18.9724 5.18473C17.2022 3.37395 14.7324 2.25 12 2.25Z" fill="#752FD8"/>
<path d="M20.0169 6.44971C19.9739 6.53109 19.9294 6.61357 19.8834 6.69712C18.7078 8.83485 16.6846 11.4728 14.0807 14.077C11.4769 16.6812 8.83875 18.7053 6.70031 19.8821C6.61566 19.9287 6.53212 19.9738 6.44971 20.0174C8.02494 21.1099 9.93765 21.7502 11.9999 21.7502C17.3847 21.7502 21.7499 17.385 21.7499 12.0002C21.7499 9.93781 21.1096 8.025 20.0169 6.44971Z" fill="#752FD8"/>
</svg>
