<svg width="48" height="48" viewBox="0 0 48 48" fill="none" xmlns="http://www.w3.org/2000/svg">
<path fill-rule="evenodd" clip-rule="evenodd" d="M26.1138 4.5C30.2598 4.49998 33.5246 4.49996 36.0754 4.84288C38.6924 5.19476 40.7814 5.9322 42.4246 7.57538C44.0678 9.21856 44.8052 11.3075 45.1572 13.9247C45.5 16.4754 45.5 19.74 45.5 23.8862V24.1138C45.5 28.26 45.5 31.5246 45.1572 34.0754C44.8052 36.6924 44.0678 38.7814 42.4246 40.4246C40.7814 42.0678 38.6924 42.8052 36.0754 43.1572C33.5246 43.5 30.26 43.5 26.1138 43.5H21.8862C17.74 43.5 14.4754 43.5 11.9247 43.1572C9.30752 42.8052 7.21856 42.0678 5.57538 40.4246C3.9322 38.7814 3.19476 36.6924 2.84288 34.0754C2.49996 31.5246 2.49998 28.26 2.5 24.114V23.8862C2.49998 19.7402 2.49996 16.4754 2.84288 13.9247C3.19476 11.3075 3.9322 9.21856 5.57538 7.57538C7.21856 5.9322 9.30752 5.19476 11.9247 4.84288C14.4754 4.49996 17.74 4.49998 21.886 4.5H26.1138ZM30.3256 17.5C29.8256 17.4999 29.3124 17.4997 28.8838 17.5573C28.3906 17.6236 27.792 17.79 27.2912 18.2908C26.7902 18.7917 26.624 19.3903 26.5576 19.8834C26.5 20.312 26.5002 20.8252 26.5004 21.3252V29C26.5004 29.8284 27.172 30.5 28.0004 30.5C28.8288 30.5 29.5004 29.8284 29.5004 29V27.7C29.5004 27.1344 29.5004 26.8514 29.6762 26.6758C29.8518 26.5 30.1346 26.5 30.7004 26.5H31.3316C31.6926 26.5 31.873 26.5 32.018 26.5896C32.163 26.6792 32.2436 26.8406 32.405 27.1634L33.6588 29.6708C34.0292 30.4118 34.9302 30.7122 35.6712 30.3416C36.4122 29.9712 36.7124 29.0702 36.342 28.3292L35.6712 26.9876C35.4458 26.5368 35.333 26.3114 35.3678 26.1158C35.4024 25.9204 35.6308 25.705 36.0876 25.274C36.9574 24.4536 37.5004 23.2902 37.5004 22C37.5004 19.5147 35.4856 17.5 33.0004 17.5H30.3256ZM20.6318 29.6138C20.9708 30.3698 21.8584 30.7076 22.6142 30.3686C23.37 30.0296 23.708 29.142 23.369 28.3862L19.8209 20.475C19.5297 19.8254 19.2494 19.2 18.9663 18.7479C18.7019 18.3256 18.1019 17.5 17.0004 17.5C15.8988 17.5 15.2988 18.3256 15.0344 18.7479C14.7514 19.2 14.471 19.8254 14.1799 20.475L10.6317 28.3862C10.2927 29.142 10.6307 30.0296 11.3865 30.3686C12.1424 30.7076 13.03 30.3698 13.369 29.6138L15.9055 23.9586C16.3764 22.9086 16.6119 22.3836 17.0004 22.3836C17.3888 22.3836 17.6243 22.9086 18.0953 23.9586L20.6318 29.6138ZM33 23.5H30.7C30.1344 23.5 29.8514 23.5 29.6758 23.3242C29.5 23.1486 29.5 22.8656 29.5 22.3V21.4C29.5 21.1116 29.5 20.8846 29.505 20.6898C29.5076 20.5886 29.5886 20.5076 29.6898 20.505C29.8846 20.5 30.1116 20.5 30.4 20.5H33C33.8284 20.5 34.5 21.1716 34.5 22C34.5 22.8284 33.8284 23.5 33 23.5Z" fill="#006AA2"/>
</svg>
