<svg width="48" height="48" viewBox="0 0 48 48" fill="none" xmlns="http://www.w3.org/2000/svg">
<path fill-rule="evenodd" clip-rule="evenodd" d="M38.4068 3.47944C38.189 2.8908 37.6276 2.5 37 2.5C36.3724 2.5 35.811 2.8908 35.5932 3.47944L35.0774 4.8735C34.3534 6.8302 34.1224 7.36182 33.7422 7.74212C33.3618 8.12242 32.8302 8.35334 30.8736 9.07738L29.4794 9.59322C28.8908 9.81104 28.5 10.3723 28.5 11C28.5 11.6277 28.8908 12.189 29.4794 12.4068L30.8736 12.9226C32.8302 13.6467 33.3618 13.8776 33.7422 14.2579C34.1224 14.6382 34.3534 15.1698 35.0774 17.1265L35.5932 18.5206C35.811 19.1092 36.3724 19.5 37 19.5C37.6276 19.5 38.189 19.1092 38.4068 18.5206L38.9226 17.1265C39.6466 15.1698 39.8776 14.6382 40.2578 14.2579C40.6382 13.8776 41.1698 13.6467 43.1266 12.9226L44.5206 12.4068C45.1092 12.189 45.5 11.6277 45.5 11C45.5 10.3723 45.1092 9.81104 44.5206 9.59322L43.1266 9.07738C41.1698 8.35334 40.6382 8.12242 40.2578 7.74212C39.8776 7.36182 39.6466 6.8302 38.9226 4.8735L38.4068 3.47944ZM26.0308 10.5039C25.106 10.5 24.1312 10.5 23.1034 10.5H23.098H22.9022C18.5068 10.5 15.0785 10.5 12.4072 10.8024C9.69558 11.1094 7.53596 11.7476 5.81628 13.1958C4.05938 14.6753 3.2493 16.5882 2.86658 18.9853C2.49992 21.282 2.49996 24.209 2.5 27.8688V28.131C2.49996 31.791 2.49992 34.718 2.86658 37.0146C3.2493 39.4118 4.05938 41.3248 5.81628 42.8042C7.53596 44.2524 9.69558 44.8906 12.4072 45.1976C15.0785 45.5 18.5066 45.5 22.902 45.5H23.0978C27.4932 45.5 30.9216 45.5 33.5928 45.1976C36.3044 44.8906 38.464 44.2524 40.1838 42.8042C41.9406 41.3248 42.7508 39.4118 43.1334 37.0146C43.5 34.718 43.5 31.791 43.5 28.131V27.869C43.5 24.209 43.5 21.282 43.1334 18.9853C42.9548 17.8669 42.6832 16.8539 42.266 15.9412C42.1786 15.9785 42.1036 16.0117 42.0406 16.0407C41.8926 16.3619 41.6366 16.9961 41.2672 17.9941L40.7514 19.3881C40.1706 20.9578 38.6738 22 37 22C35.3262 22 33.8294 20.9578 33.2486 19.3881L32.7328 17.9941C32.3634 16.9961 32.1074 16.3619 31.9594 16.0407C31.638 15.8927 31.004 15.6366 30.006 15.2673L28.6118 14.7514C27.0422 14.1705 26 12.6738 26 11C26 10.8326 26.0104 10.667 26.0308 10.5039ZM24 18.5C23.1716 18.5 22.5 19.1716 22.5 20V36C22.5 36.8284 23.1716 37.5 24 37.5C24.8284 37.5 25.5 36.8284 25.5 36V20C25.5 19.1716 24.8284 18.5 24 18.5ZM16.5 24C16.5 23.1716 17.1716 22.5 18 22.5C18.8284 22.5 19.5 23.1716 19.5 24V32C19.5 32.8284 18.8284 33.5 18 33.5C17.1716 33.5 16.5 32.8284 16.5 32V24ZM12 24.5C11.1716 24.5 10.5 25.1716 10.5 26V30C10.5 30.8284 11.1716 31.5 12 31.5C12.8284 31.5 13.5 30.8284 13.5 30V26C13.5 25.1716 12.8284 24.5 12 24.5ZM31.5 24C31.5 23.1716 30.8284 22.5 30 22.5C29.1716 22.5 28.5 23.1716 28.5 24V32C28.5 32.8284 29.1716 33.5 30 33.5C30.8284 33.5 31.5 32.8284 31.5 32V24ZM36 24.5C36.8284 24.5 37.5 25.1716 37.5 26V30C37.5 30.8284 36.8284 31.5 36 31.5C35.1716 31.5 34.5 30.8284 34.5 30V26C34.5 25.1716 35.1716 24.5 36 24.5Z" fill="#151B90"/>
</svg>
