<svg width="48" height="48" viewBox="0 0 48 48" fill="none" xmlns="http://www.w3.org/2000/svg">
<path fill-rule="evenodd" clip-rule="evenodd" d="M13.5 22C13.5 21.1716 14.1716 20.5 15 20.5H33C33.8284 20.5 34.5 21.1716 34.5 22C34.5 22.8284 33.8284 23.5 33 23.5H15C14.1716 23.5 13.5 22.8284 13.5 22Z" fill="#D5664E"/>
<path fill-rule="evenodd" clip-rule="evenodd" d="M10.5 32C10.5 31.1716 11.1716 30.5 12 30.5H36C36.8284 30.5 37.5 31.1716 37.5 32C37.5 32.8284 36.8284 33.5 36 33.5H12C11.1716 33.5 10.5 32.8284 10.5 32Z" fill="#D5664E"/>
<path d="M4.90573 42.974C8.07893 39.5894 10.5739 35.8462 12.5653 32H35.4349C37.4261 35.8462 39.9211 39.5894 43.0943 42.974C43.5033 43.4102 43.6141 44.0476 43.3765 44.5962C43.1387 45.145 42.5979 45.5 42.0001 45.5H34.0001C33.3439 45.5 32.7639 45.0736 32.5683 44.4472C31.2707 40.2922 27.8425 37.5 24.0001 37.5C20.1577 37.5 16.7295 40.2922 15.4318 44.4472C15.2362 45.0736 14.6562 45.5 14 45.5H6.00005C5.40215 45.5 4.86135 45.145 4.62365 44.5962C4.38597 44.0476 4.49681 43.4102 4.90573 42.974Z" fill="#D5664E"/>
<path d="M14.4504 28C15.3105 25.9922 16.0522 23.9806 16.6996 22H31.3002C31.9476 23.9806 32.6894 25.9922 33.5494 28H14.4504Z" fill="#D5664E"/>
<path d="M20.2795 7.70298C20.4209 7.00318 21.0359 6.5 21.7499 6.5H22.4999V4C22.4999 3.17158 23.1715 2.5 23.9999 2.5C24.8283 2.5 25.4999 3.17158 25.4999 4V6.5H26.2499C26.9639 6.5 27.5789 7.00318 27.7201 7.70298C28.3371 10.757 29.0717 14.2748 30.0989 18H17.9009C18.9281 14.2748 19.6626 10.757 20.2795 7.70298Z" fill="#D5664E"/>
</svg>
